<svg width="179" height="61" viewBox="0 0 179 61" fill="none" xmlns="http://www.w3.org/2000/svg">
<line x1="16.1296" y1="22.1919" x2="46.9887" y2="34.7921" stroke="white" stroke-width="2.25366" stroke-linecap="round" stroke-linejoin="round"/>
<line x1="15.999" y1="48.3232" x2="47.0214" y2="35.567" stroke="white" stroke-width="2.25366" stroke-linecap="round" stroke-linejoin="round"/>
<line x1="10.3834" y1="35.2886" x2="47.3583" y2="35.0608" stroke="white" stroke-width="2.25366" stroke-linecap="round" stroke-linejoin="round"/>
<path d="M9.61884 35.6973L15.2007 22.2216L28.9575 16.5233L47.8268 14.5096L47.8268 35.2321L38.0433 45.0605L38.0396 45.0642L28.4137 54.6461L15.2007 49.1731L9.61884 35.6973Z" stroke="white" stroke-width="2.25366" stroke-linecap="round" stroke-linejoin="round"/>
<path d="M46.6182 35V13.3789H49.2364V23.007H60.7648V13.3789H63.383V35H60.7648V25.3296H49.2364V35H46.6182ZM74.8745 35.3378C73.4106 35.3378 72.1261 34.9894 71.0211 34.2927C69.9232 33.5959 69.0645 32.6211 68.4452 31.3683C67.8328 30.1155 67.5267 28.6516 67.5267 26.9765C67.5267 25.2874 67.8328 23.8129 68.4452 22.5531C69.0645 21.2933 69.9232 20.315 71.0211 19.6182C72.1261 18.9214 73.4106 18.573 74.8745 18.573C76.3384 18.573 77.6194 18.9214 78.7173 19.6182C79.8223 20.315 80.6809 21.2933 81.2933 22.5531C81.9126 23.8129 82.2223 25.2874 82.2223 26.9765C82.2223 28.6516 81.9126 30.1155 81.2933 31.3683C80.6809 32.6211 79.8223 33.5959 78.7173 34.2927C77.6194 34.9894 76.3384 35.3378 74.8745 35.3378ZM74.8745 33.0997C75.9865 33.0997 76.9015 32.8147 77.6194 32.2446C78.3372 31.6745 78.8686 30.9249 79.2135 29.9959C79.5584 29.0669 79.7308 28.0604 79.7308 26.9765C79.7308 25.8927 79.5584 24.8827 79.2135 23.9466C78.8686 23.0106 78.3372 22.254 77.6194 21.6768C76.9015 21.0997 75.9865 20.8111 74.8745 20.8111C73.7625 20.8111 72.8475 21.0997 72.1296 21.6768C71.4117 22.254 70.8804 23.0106 70.5355 23.9466C70.1906 24.8827 70.0182 25.8927 70.0182 26.9765C70.0182 28.0604 70.1906 29.0669 70.5355 29.9959C70.8804 30.9249 71.4117 31.6745 72.1296 32.2446C72.8475 32.8147 73.7625 33.0997 74.8745 33.0997ZM88.517 13.3789V35H86.0255V13.3789H88.517ZM99.668 35.3378C98.2041 35.3378 96.9197 34.9894 95.8147 34.2927C94.7167 33.5959 93.8581 32.6211 93.2387 31.3683C92.6264 30.1155 92.3202 28.6516 92.3202 26.9765C92.3202 25.2874 92.6264 23.8129 93.2387 22.5531C93.8581 21.2933 94.7167 20.315 95.8147 19.6182C96.9197 18.9214 98.2041 18.573 99.668 18.573C101.132 18.573 102.413 18.9214 103.511 19.6182C104.616 20.315 105.474 21.2933 106.087 22.5531C106.706 23.8129 107.016 25.2874 107.016 26.9765C107.016 28.6516 106.706 30.1155 106.087 31.3683C105.474 32.6211 104.616 33.5959 103.511 34.2927C102.413 34.9894 101.132 35.3378 99.668 35.3378ZM99.668 33.0997C100.78 33.0997 101.695 32.8147 102.413 32.2446C103.131 31.6745 103.662 30.9249 104.007 29.9959C104.352 29.0669 104.524 28.0604 104.524 26.9765C104.524 25.8927 104.352 24.8827 104.007 23.9466C103.662 23.0106 103.131 22.254 102.413 21.6768C101.695 21.0997 100.78 20.8111 99.668 20.8111C98.556 20.8111 97.6411 21.0997 96.9232 21.6768C96.2053 22.254 95.6739 23.0106 95.329 23.9466C94.9842 24.8827 94.8117 25.8927 94.8117 26.9765C94.8117 28.0604 94.9842 29.0669 95.329 29.9959C95.6739 30.9249 96.2053 31.6745 96.9232 32.2446C97.6411 32.8147 98.556 33.0997 99.668 33.0997ZM117.407 35.3378C115.887 35.3378 114.577 34.9789 113.479 34.261C112.382 33.5431 111.537 32.5543 110.946 31.2944C110.355 30.0346 110.059 28.5953 110.059 26.9765C110.059 25.3296 110.362 23.8762 110.967 22.6164C111.579 21.3496 112.431 20.3607 113.522 19.6499C114.62 18.932 115.901 18.573 117.365 18.573C118.505 18.573 119.532 18.7842 120.447 19.2065C121.362 19.6287 122.112 20.2199 122.696 20.9801C123.28 21.7402 123.643 22.627 123.783 23.6405H121.292C121.102 22.9015 120.679 22.2469 120.025 21.6768C119.377 21.0997 118.505 20.8111 117.407 20.8111C116.435 20.8111 115.584 21.0645 114.852 21.5713C114.127 22.071 113.56 22.7783 113.152 23.6933C112.751 24.6012 112.55 25.6674 112.55 26.8921C112.55 28.1449 112.748 29.2358 113.142 30.1648C113.543 31.0938 114.106 31.8152 114.831 32.329C115.563 32.8428 116.421 33.0997 117.407 33.0997C118.054 33.0997 118.642 32.9871 119.17 32.7619C119.698 32.5367 120.145 32.2129 120.511 31.7906C120.877 31.3683 121.137 30.8616 121.292 30.2704H123.783C123.643 31.2276 123.294 32.0897 122.738 32.8569C122.189 33.617 121.461 34.2223 120.553 34.6727C119.652 35.1161 118.603 35.3378 117.407 35.3378ZM134.478 18.7842V20.8956H126.074V18.7842H134.478ZM128.523 14.8991H131.015V30.3548C131.015 31.0587 131.117 31.5865 131.321 31.9384C131.532 32.2833 131.8 32.5155 132.123 32.6352C132.454 32.7478 132.803 32.8041 133.169 32.8041C133.443 32.8041 133.668 32.79 133.844 32.7619C134.02 32.7267 134.161 32.6985 134.267 32.6774L134.773 34.9155C134.604 34.9789 134.369 35.0422 134.066 35.1056C133.763 35.176 133.38 35.2111 132.915 35.2111C132.211 35.2111 131.522 35.0598 130.846 34.7572C130.177 34.4545 129.621 33.9935 129.178 33.3742C128.742 32.7548 128.523 31.9736 128.523 31.0305V14.8991ZM138.226 35V18.7842H140.717V35H138.226ZM139.492 16.0815C139.007 16.0815 138.588 15.9161 138.236 15.5853C137.891 15.2545 137.719 14.8569 137.719 14.3924C137.719 13.9279 137.891 13.5302 138.236 13.1994C138.588 12.8686 139.007 12.7032 139.492 12.7032C139.978 12.7032 140.393 12.8686 140.738 13.1994C141.09 13.5302 141.266 13.9279 141.266 14.3924C141.266 14.8569 141.09 15.2545 140.738 15.5853C140.393 15.9161 139.978 16.0815 139.492 16.0815ZM151.868 35.3378C150.404 35.3378 149.12 34.9894 148.015 34.2927C146.917 33.5959 146.058 32.6211 145.439 31.3683C144.826 30.1155 144.52 28.6516 144.52 26.9765C144.52 25.2874 144.826 23.8129 145.439 22.5531C146.058 21.2933 146.917 20.315 148.015 19.6182C149.12 18.9214 150.404 18.573 151.868 18.573C153.332 18.573 154.613 18.9214 155.711 19.6182C156.816 20.315 157.674 21.2933 158.287 22.5531C158.906 23.8129 159.216 25.2874 159.216 26.9765C159.216 28.6516 158.906 30.1155 158.287 31.3683C157.674 32.6211 156.816 33.5959 155.711 34.2927C154.613 34.9894 153.332 35.3378 151.868 35.3378ZM151.868 33.0997C152.98 33.0997 153.895 32.8147 154.613 32.2446C155.331 31.6745 155.862 30.9249 156.207 29.9959C156.552 29.0669 156.724 28.0604 156.724 26.9765C156.724 25.8927 156.552 24.8827 156.207 23.9466C155.862 23.0106 155.331 22.254 154.613 21.6768C153.895 21.0997 152.98 20.8111 151.868 20.8111C150.756 20.8111 149.841 21.0997 149.123 21.6768C148.405 22.254 147.874 23.0106 147.529 23.9466C147.184 24.8827 147.012 25.8927 147.012 26.9765C147.012 28.0604 147.184 29.0669 147.529 29.9959C147.874 30.9249 148.405 31.6745 149.123 32.2446C149.841 32.8147 150.756 33.0997 151.868 33.0997ZM165.511 25.2452V35H163.019V18.7842H165.426V21.3179H165.637C166.017 20.4944 166.594 19.8328 167.369 19.3331C168.143 18.8264 169.142 18.573 170.367 18.573C171.465 18.573 172.426 18.7982 173.249 19.2487C174.072 19.6921 174.713 20.3677 175.17 21.2757C175.628 22.1765 175.857 23.3167 175.857 24.6962V35H173.365V24.8651C173.365 23.5912 173.034 22.5988 172.373 21.888C171.711 21.1701 170.803 20.8111 169.649 20.8111C168.854 20.8111 168.143 20.9836 167.516 21.3284C166.897 21.6733 166.408 22.1765 166.049 22.8381C165.69 23.4997 165.511 24.3021 165.511 25.2452Z" fill="white"/>
</svg>
