<svg width="255" height="61" viewBox="0 0 255 61" fill="none" xmlns="http://www.w3.org/2000/svg">
<line x1="16.6161" y1="21.9875" x2="46.7843" y2="34.3055" stroke="#FF4444" stroke-width="3" stroke-linecap="round" stroke-linejoin="round"/>
<line x1="16.2022" y1="47.8361" x2="46.5343" y2="35.3638" stroke="#FF4444" stroke-width="3" stroke-linecap="round" stroke-linejoin="round"/>
<line x1="10.7542" y1="34.9132" x2="46.9829" y2="34.69" stroke="#FF4444" stroke-width="3" stroke-linecap="round" stroke-linejoin="round"/>
<path d="M10.0228 35.6973L15.4863 22.5072L29.0506 16.8887L47.4536 14.9248L47.4536 35.078L37.78 44.7961L37.7751 44.8009L28.3267 54.2061L15.4863 48.8874L10.0228 35.6973Z" stroke="#FF4444" stroke-width="3" stroke-linecap="round" stroke-linejoin="round"/>
<path d="M87.0219 16.9099V43H80.9839V32.303H69.1316V43H63.0935V16.9099H69.1316V27.1968H80.9839V16.9099H87.0219ZM102.14 43.2982C100.028 43.2982 98.127 42.8633 96.4374 41.9937C94.7726 41.0991 93.4681 39.8692 92.5239 38.3038C91.5797 36.7384 91.1075 34.9618 91.1075 32.9739C91.1075 30.9861 91.5797 29.2095 92.5239 27.6441C93.4681 26.0787 94.7726 24.8611 96.4374 23.9915C98.127 23.0969 100.028 22.6497 102.14 22.6497C104.252 22.6497 106.14 23.0969 107.805 23.9915C109.47 24.8611 110.775 26.0787 111.719 27.6441C112.663 29.2095 113.135 30.9861 113.135 32.9739C113.135 34.9618 112.663 36.7384 111.719 38.3038C110.775 39.8692 109.47 41.0991 107.805 41.9937C106.14 42.8633 104.252 43.2982 102.14 43.2982ZM102.14 38.5274C103.631 38.5274 104.848 38.0304 105.793 37.0365C106.762 36.0178 107.246 34.6636 107.246 32.9739C107.246 31.2843 106.762 29.9425 105.793 28.9486C104.848 27.9298 103.631 27.4205 102.14 27.4205C100.649 27.4205 99.4191 27.9298 98.4501 28.9486C97.481 29.9425 96.9965 31.2843 96.9965 32.9739C96.9965 34.6636 97.481 36.0178 98.4501 37.0365C99.4191 38.0304 100.649 38.5274 102.14 38.5274ZM124.029 43.2982C121.767 43.2982 120.003 42.7018 118.736 41.5091C117.469 40.2916 116.835 38.5771 116.835 36.3656V15.3444H122.65V36.0302C122.65 36.875 122.861 37.5335 123.283 38.0056C123.73 38.4529 124.352 38.6765 125.147 38.6765C125.445 38.6765 125.743 38.6392 126.041 38.5647C126.364 38.4901 126.613 38.4032 126.787 38.3038L127.048 42.8136C126.079 43.1367 125.072 43.2982 124.029 43.2982ZM138.893 43.2982C136.781 43.2982 134.88 42.8633 133.191 41.9937C131.526 41.0991 130.221 39.8692 129.277 38.3038C128.333 36.7384 127.861 34.9618 127.861 32.9739C127.861 30.9861 128.333 29.2095 129.277 27.6441C130.221 26.0787 131.526 24.8611 133.191 23.9915C134.88 23.0969 136.781 22.6497 138.893 22.6497C141.005 22.6497 142.894 23.0969 144.559 23.9915C146.223 24.8611 147.528 26.0787 148.472 27.6441C149.416 29.2095 149.888 30.9861 149.888 32.9739C149.888 34.9618 149.416 36.7384 148.472 38.3038C147.528 39.8692 146.223 41.0991 144.559 41.9937C142.894 42.8633 141.005 43.2982 138.893 43.2982ZM138.893 38.5274C140.384 38.5274 141.602 38.0304 142.546 37.0365C143.515 36.0178 143.999 34.6636 143.999 32.9739C143.999 31.2843 143.515 29.9425 142.546 28.9486C141.602 27.9298 140.384 27.4205 138.893 27.4205C137.402 27.4205 136.172 27.9298 135.203 28.9486C134.234 29.9425 133.75 31.2843 133.75 32.9739C133.75 34.6636 134.234 36.0178 135.203 37.0365C136.172 38.0304 137.402 38.5274 138.893 38.5274ZM166.484 43.4473C163.826 43.4473 161.416 42.8758 159.254 41.7328C157.117 40.5649 155.427 38.9622 154.185 36.9247C152.967 34.8624 152.359 32.5391 152.359 29.9549C152.359 27.3708 152.967 25.0599 154.185 23.0224C155.427 20.96 157.117 19.3574 159.254 18.2144C161.416 17.0465 163.838 16.4626 166.522 16.4626C168.783 16.4626 170.82 16.8602 172.634 17.6553C174.473 18.4504 176.014 19.5934 177.256 21.0843L173.38 24.6624C171.616 22.6248 169.429 21.6061 166.82 21.6061C165.205 21.6061 163.764 21.9664 162.496 22.687C161.229 23.3827 160.235 24.3642 159.515 25.6314C158.819 26.8987 158.471 28.3398 158.471 29.9549C158.471 31.57 158.819 33.0112 159.515 34.2784C160.235 35.5457 161.229 36.5396 162.496 37.2602C163.764 37.9559 165.205 38.3038 166.82 38.3038C169.429 38.3038 171.616 37.2726 173.38 35.2102L177.256 38.7883C176.014 40.304 174.473 41.4594 172.634 42.2546C170.796 43.0497 168.746 43.4473 166.484 43.4473ZM192.813 42.0309C192.242 42.4533 191.533 42.7764 190.689 43C189.869 43.1988 189.011 43.2982 188.117 43.2982C185.707 43.2982 183.855 42.6894 182.563 41.4719C181.271 40.2543 180.625 38.4653 180.625 36.1047V18.5125H186.44V23.3951H191.397V27.8677H186.44V36.0302C186.44 36.875 186.651 37.5335 187.073 38.0056C187.496 38.4529 188.104 38.6765 188.9 38.6765C189.794 38.6765 190.589 38.428 191.285 37.9311L192.813 42.0309ZM195.911 22.9479H201.725V43H195.911V22.9479ZM198.818 20.1525C197.749 20.1525 196.88 19.8419 196.209 19.2207C195.538 18.5995 195.203 17.8292 195.203 16.9099C195.203 15.9905 195.538 15.2202 196.209 14.599C196.88 13.9778 197.749 13.6672 198.818 13.6672C199.886 13.6672 200.756 13.9654 201.427 14.5617C202.098 15.1581 202.433 15.9035 202.433 16.798C202.433 17.7671 202.098 18.5747 201.427 19.2207C200.756 19.8419 199.886 20.1525 198.818 20.1525ZM216.476 43.2982C214.364 43.2982 212.464 42.8633 210.774 41.9937C209.109 41.0991 207.805 39.8692 206.86 38.3038C205.916 36.7384 205.444 34.9618 205.444 32.9739C205.444 30.9861 205.916 29.2095 206.86 27.6441C207.805 26.0787 209.109 24.8611 210.774 23.9915C212.464 23.0969 214.364 22.6497 216.476 22.6497C218.589 22.6497 220.477 23.0969 222.142 23.9915C223.807 24.8611 225.111 26.0787 226.055 27.6441C227 29.2095 227.472 30.9861 227.472 32.9739C227.472 34.9618 227 36.7384 226.055 38.3038C225.111 39.8692 223.807 41.0991 222.142 41.9937C220.477 42.8633 218.589 43.2982 216.476 43.2982ZM216.476 38.5274C217.967 38.5274 219.185 38.0304 220.129 37.0365C221.098 36.0178 221.583 34.6636 221.583 32.9739C221.583 31.2843 221.098 29.9425 220.129 28.9486C219.185 27.9298 217.967 27.4205 216.476 27.4205C214.986 27.4205 213.756 27.9298 212.787 28.9486C211.818 29.9425 211.333 31.2843 211.333 32.9739C211.333 34.6636 211.818 36.0178 212.787 37.0365C213.756 38.0304 214.986 38.5274 216.476 38.5274ZM243.36 22.6497C245.844 22.6497 247.845 23.3951 249.36 24.886C250.901 26.3769 251.671 28.5883 251.671 31.5203V43H245.857V32.4149C245.857 30.8246 245.509 29.6443 244.813 28.8741C244.117 28.0789 243.111 27.6814 241.794 27.6814C240.328 27.6814 239.16 28.141 238.291 29.0604C237.421 29.9549 236.986 31.2967 236.986 33.0857V43H231.172V22.9479H236.725V25.296C237.495 24.4512 238.452 23.8051 239.595 23.3578C240.738 22.8857 241.993 22.6497 243.36 22.6497Z" fill="white"/>
</svg>
