<svg width="269" height="311" viewBox="0 0 269 311" fill="none" xmlns="http://www.w3.org/2000/svg">
<g clip-path="url(#clip0_4_51)">
<path fill-rule="evenodd" clip-rule="evenodd" d="M134.5 0L179.333 77.6535L269 77.6536L224.167 155.307L269 232.961L179.333 232.961L134.5 310.614L89.6667 232.961L2.32497e-06 232.961L44.8333 155.307L0 77.6535L89.6667 77.6535L134.5 0ZM75.4302 102.312L42.7095 102.312L59.0698 130.649L75.4302 102.312ZM73.3063 155.307L103.903 102.312L165.097 102.312L195.694 155.307L165.097 208.302L103.903 208.302L73.3063 155.307ZM59.0698 179.965L42.7095 208.302L75.4302 208.302L59.0698 179.965ZM118.14 232.961L134.5 261.298L150.86 232.961L118.14 232.961ZM193.57 208.302L226.291 208.302L209.93 179.965L193.57 208.302ZM209.93 130.649L226.29 102.312L193.57 102.312L209.93 130.649ZM150.86 77.6535L118.14 77.6535L134.5 49.3166L150.86 77.6535Z" stroke="#FF0000" stroke-width="7"/>
<mask id="mask0_4_51" style="mask-type:alpha" maskUnits="userSpaceOnUse" x="0" y="0" width="269" height="311">
<path d="M21.3547 220.631L247.645 220.631L134.5 24.6583L21.3547 220.631ZM134.5 285.956L247.645 89.9827L21.3547 89.9826L134.5 285.956Z" stroke="#FF0000" stroke-width="24.6583"/>
</mask>
<g mask="url(#mask0_4_51)">
<path d="M24.2191 93.851L21.6411 95.3266L17.2262 87.6128L19.8043 86.1373L24.2191 93.851ZM26.4024 83.7599L11.5069 92.2851L9.59814 88.95L24.4936 80.4248L26.4024 83.7599ZM31.5316 92.7217L16.6361 101.247L14.7332 97.9221L29.6286 89.3968L31.5316 92.7217ZM32.9364 111.692L32.2715 112.073C31.1393 112.721 30.0333 113.146 28.9535 113.347C27.8775 113.556 26.8585 113.555 25.8963 113.345C24.938 113.142 24.0639 112.746 23.274 112.157C22.4948 111.57 21.8339 110.803 21.2914 109.855C20.7488 108.907 20.4201 107.945 20.3054 106.97C20.1975 105.99 20.2948 105.029 20.5973 104.086C20.9037 103.151 21.4173 102.268 22.138 101.439C22.8587 100.61 23.7851 99.8716 24.9173 99.2236L25.5823 98.843C26.7144 98.195 27.8204 97.7703 28.9003 97.5688C29.9869 97.3633 31.0094 97.3621 31.9677 97.5652C32.9298 97.7751 33.8025 98.1765 34.5856 98.7696C35.3755 99.3588 36.0417 100.127 36.5843 101.075C37.1269 102.023 37.4521 102.987 37.56 103.967C37.6747 104.942 37.5769 105.895 37.2666 106.824C36.9603 107.76 36.4433 108.644 35.7158 109.477C34.995 110.306 34.0686 111.044 32.9364 111.692ZM30.3451 108.707L31.0305 108.315C31.7876 107.882 32.4169 107.431 32.9186 106.963C33.4271 106.491 33.8049 106.012 34.0522 105.526C34.2994 105.041 34.4126 104.55 34.3918 104.055C34.3778 103.556 34.2323 103.064 33.9551 102.58C33.6662 102.075 33.3122 101.694 32.8929 101.436C32.4804 101.174 32.0022 101.027 31.4583 100.994C30.9183 100.968 30.316 101.055 29.6514 101.254C28.9975 101.456 28.292 101.774 27.535 102.207L26.8495 102.6C26.0993 103.029 25.468 103.476 24.9556 103.942C24.454 104.41 24.0761 104.889 23.822 105.378C23.568 105.868 23.446 106.358 23.4561 106.851C23.4701 107.35 23.6215 107.852 23.9103 108.356C24.1875 108.841 24.5357 109.212 24.955 109.47C25.3782 109.735 25.8652 109.881 26.4159 109.91C26.9666 109.939 27.5689 109.852 28.2228 109.65C28.8874 109.451 29.5949 109.137 30.3451 108.707ZM34.4729 126.432L31.8949 127.907L27.5913 120.388L30.1693 118.912L34.4729 126.432ZM43.1366 112.998L28.2412 121.524L26.3324 118.188L41.2278 109.663L43.1366 112.998ZM47.3286 136.839L46.6636 137.219C45.5315 137.867 44.4255 138.292 43.3456 138.494C42.2697 138.702 41.2506 138.701 40.2885 138.491C39.3302 138.288 38.4561 137.892 37.6662 137.303C36.887 136.717 36.2261 135.95 35.6835 135.002C35.1409 134.054 34.8123 133.092 34.6976 132.116C34.5897 131.137 34.687 130.175 34.9895 129.233C35.2959 128.297 35.8094 127.414 36.5301 126.585C37.2509 125.756 38.1773 125.018 39.3095 124.37L39.9744 123.989C41.1066 123.341 42.2126 122.917 43.2924 122.715C44.3791 122.51 45.4015 122.508 46.3598 122.711C47.322 122.921 48.1946 123.323 48.9777 123.916C49.7676 124.505 50.4339 125.274 50.9765 126.222C51.5191 127.17 51.8443 128.133 51.9522 129.113C52.0669 130.089 51.9691 131.041 51.6588 131.97C51.3524 132.906 50.8355 133.79 50.1079 134.623C49.3872 135.452 48.4608 136.191 47.3286 136.839ZM44.7373 133.853L45.4227 133.461C46.1797 133.028 46.8091 132.577 47.3107 132.109C47.8192 131.637 48.1971 131.158 48.4443 130.672C48.6916 130.187 48.8048 129.697 48.784 129.201C48.77 128.702 48.6244 128.211 48.3473 127.726C48.0584 127.222 47.7043 126.84 47.285 126.582C46.8725 126.32 46.3944 126.173 45.8504 126.14C45.3104 126.114 44.7081 126.201 44.0435 126.4C43.3896 126.603 42.6842 126.92 41.9271 127.354L41.2417 127.746C40.4915 128.175 39.8602 128.623 39.3478 129.088C38.8461 129.556 38.4683 130.035 38.2142 130.524C37.9601 131.014 37.8382 131.505 37.8482 131.997C37.8622 132.496 38.0136 132.998 38.3025 133.503C38.5797 133.987 38.9279 134.358 39.3472 134.616C39.7704 134.881 40.2573 135.028 40.8081 135.057C41.3588 135.085 41.9611 134.999 42.615 134.796C43.2796 134.597 43.987 134.283 44.7373 133.853ZM50.6178 149.04L52.5149 152.355C51.4606 152.886 50.3969 153.123 49.3237 153.068C48.2613 153.015 47.2546 152.672 46.3039 152.039C45.3599 151.402 44.5386 150.473 43.8399 149.252C43.2817 148.277 42.9491 147.309 42.8422 146.347C42.7353 145.385 42.838 144.457 43.1503 143.563C43.4733 142.672 43.9927 141.831 44.7086 141.041C45.4351 140.254 46.3543 139.542 47.466 138.906L48.3765 138.385C49.4882 137.749 50.5713 137.323 51.6258 137.109C52.6803 136.895 53.6774 136.881 54.6171 137.068C55.5569 137.254 56.4124 137.634 57.1838 138.206C57.9552 138.779 58.6102 139.536 59.1489 140.477C59.8749 141.746 60.2593 142.947 60.302 144.082C60.3447 145.216 60.1037 146.25 59.579 147.185C59.0581 148.126 58.3135 148.937 57.3451 149.618L55.4422 146.293C56.0063 145.934 56.4315 145.545 56.7178 145.128C57.0109 144.707 57.1465 144.24 57.1247 143.727C57.1029 143.214 56.9047 142.631 56.5299 141.976C56.2567 141.498 55.9279 141.13 55.5437 140.87C55.1634 140.617 54.7174 140.478 54.2057 140.454C53.6978 140.437 53.1209 140.536 52.4748 140.752C51.8355 140.964 51.1203 141.296 50.3292 141.749L49.3982 142.282C48.6139 142.731 47.9645 143.17 47.4502 143.601C46.9358 144.031 46.5555 144.466 46.3092 144.906C46.0668 145.352 45.957 145.809 45.9797 146.276C46.0025 146.743 46.1622 147.235 46.4588 147.754C46.7984 148.347 47.1735 148.789 47.5841 149.079C48.0014 149.365 48.4616 149.505 48.9645 149.498C49.4675 149.49 50.0186 149.338 50.6178 149.04ZM67.2719 155.168L52.3765 163.693L50.4735 160.368L65.369 151.843L67.2719 155.168ZM69.8658 159.7L67.2775 161.181L60.2395 148.885L62.8278 147.403L69.8658 159.7ZM72.8402 164.897L57.9448 173.422L56.0418 170.097L70.9373 161.572L72.8402 164.897ZM74.3681 184.083L73.7031 184.463C72.5709 185.111 71.4649 185.536 70.3851 185.737C69.3092 185.946 68.2901 185.945 67.3279 185.735C66.3697 185.532 65.4956 185.136 64.7057 184.547C63.9265 183.961 63.2656 183.193 62.723 182.245C62.1804 181.297 61.8518 180.336 61.7371 179.36C61.6292 178.381 61.7265 177.419 62.029 176.477C62.3353 175.541 62.8489 174.658 63.5696 173.829C64.2903 173 65.2168 172.262 66.3489 171.614L67.0139 171.233C68.1461 170.585 69.2521 170.161 70.3319 169.959C71.4185 169.754 72.441 169.752 73.3993 169.955C74.3615 170.165 75.2341 170.567 76.0172 171.16C76.8071 171.749 77.4734 172.518 78.0159 173.466C78.5585 174.414 78.8838 175.377 78.9917 176.357C79.1064 177.332 79.0086 178.285 78.6983 179.214C78.3919 180.15 77.8749 181.034 77.1474 181.867C76.4267 182.696 75.5002 183.435 74.3681 184.083ZM71.7767 181.097L72.4622 180.705C73.2192 180.272 73.8486 179.821 74.3502 179.353C74.8587 178.881 75.2365 178.402 75.4838 177.916C75.731 177.431 75.8442 176.94 75.8234 176.445C75.8094 175.946 75.6639 175.455 75.3867 174.97C75.0979 174.466 74.7438 174.084 74.3245 173.826C73.912 173.564 73.4338 173.417 72.8899 173.384C72.3499 173.358 71.7476 173.445 71.083 173.644C70.4291 173.847 69.7236 174.164 68.9666 174.598L68.2811 174.99C67.5309 175.419 66.8996 175.867 66.3872 176.332C65.8856 176.8 65.5077 177.279 65.2537 177.768C64.9996 178.258 64.8776 178.749 64.8877 179.241C64.9017 179.74 65.0531 180.242 65.342 180.747C65.6191 181.231 65.9673 181.602 66.3866 181.86C66.8098 182.125 67.2968 182.272 67.8475 182.3C68.3983 182.329 69.0006 182.243 69.6545 182.04C70.3191 181.841 71.0265 181.527 71.7767 181.097ZM89.6916 194.34L74.7962 202.865L72.8932 199.54L79.2996 188.404L69.6728 193.914L67.764 190.579L82.6595 182.053L84.5683 185.389L78.1677 196.535L87.7945 191.025L89.6916 194.34Z" fill="#FF0000"/>
<path d="M91.2617 212.09L88.6836 213.565L84.2688 205.852L86.8468 204.376L91.2617 212.09ZM93.4449 201.999L78.5495 210.524L76.6407 207.189L91.5361 198.663L93.4449 201.999ZM98.5741 210.96L83.6787 219.486L81.7757 216.161L96.6712 207.636L98.5741 210.96ZM99.979 229.931L99.314 230.312C98.1819 230.96 97.0759 231.384 95.996 231.586C94.9201 231.794 93.901 231.794 92.9389 231.584C91.9806 231.381 91.1065 230.984 90.3166 230.395C89.5374 229.809 88.8765 229.042 88.3339 228.094C87.7913 227.146 87.4627 226.184 87.348 225.209C87.2401 224.229 87.3374 223.268 87.6399 222.325C87.9463 221.389 88.4598 220.507 89.1805 219.678C89.9012 218.849 90.8277 218.11 91.9599 217.462L92.6248 217.082C93.757 216.434 94.863 216.009 95.9428 215.807C97.0295 215.602 98.0519 215.601 99.0102 215.804C99.9724 216.014 100.845 216.415 101.628 217.008C102.418 217.597 103.084 218.366 103.627 219.314C104.169 220.262 104.495 221.226 104.603 222.205C104.717 223.181 104.619 224.133 104.309 225.062C104.003 225.998 103.486 226.883 102.758 227.716C102.038 228.545 101.111 229.283 99.979 229.931ZM97.3877 226.946L98.0731 226.554C98.8301 226.12 99.4595 225.67 99.9611 225.201C100.47 224.729 100.847 224.25 101.095 223.765C101.342 223.279 101.455 222.789 101.434 222.294C101.42 221.795 101.275 221.303 100.998 220.819C100.709 220.314 100.355 219.933 99.9354 219.675C99.5229 219.413 99.0448 219.266 98.5008 219.233C97.9608 219.207 97.3585 219.294 96.6939 219.493C96.04 219.695 95.3346 220.013 94.5775 220.446L93.8921 220.838C93.1418 221.268 92.5105 221.715 91.9982 222.18C91.4965 222.649 91.1187 223.127 90.8646 223.617C90.6105 224.106 90.4885 224.597 90.4986 225.089C90.5126 225.588 90.664 226.09 90.9529 226.595C91.23 227.079 91.5783 227.45 91.9976 227.708C92.4208 227.973 92.9077 228.12 93.4585 228.149C94.0092 228.178 94.6115 228.091 95.2654 227.889C95.93 227.69 96.6374 227.375 97.3877 226.946ZM101.515 244.671L98.9374 246.146L94.6338 238.627L97.2119 237.151L101.515 244.671ZM110.179 231.237L95.2838 239.762L93.375 236.427L108.27 227.902L110.179 231.237ZM114.371 255.077L113.706 255.458C112.574 256.106 111.468 256.531 110.388 256.732C109.312 256.941 108.293 256.94 107.331 256.73C106.373 256.527 105.499 256.131 104.709 255.542C103.93 254.955 103.269 254.188 102.726 253.24C102.183 252.292 101.855 251.33 101.74 250.355C101.632 249.375 101.73 248.414 102.032 247.471C102.338 246.536 102.852 245.653 103.573 244.824C104.293 243.995 105.22 243.257 106.352 242.609L107.017 242.228C108.149 241.58 109.255 241.155 110.335 240.954C111.422 240.748 112.444 240.747 113.402 240.95C114.365 241.16 115.237 241.562 116.02 242.155C116.81 242.744 117.476 243.512 118.019 244.46C118.562 245.408 118.887 246.372 118.995 247.352C119.109 248.327 119.012 249.28 118.701 250.209C118.395 251.145 117.878 252.029 117.15 252.862C116.43 253.691 115.503 254.429 114.371 255.077ZM111.78 252.092L112.465 251.7C113.222 251.267 113.852 250.816 114.353 250.348C114.862 249.876 115.24 249.397 115.487 248.911C115.734 248.426 115.847 247.935 115.827 247.44C115.813 246.941 115.667 246.449 115.39 245.965C115.101 245.46 114.747 245.079 114.328 244.821C113.915 244.559 113.437 244.412 112.893 244.379C112.353 244.353 111.751 244.44 111.086 244.639C110.432 244.841 109.727 245.159 108.97 245.592L108.284 245.985C107.534 246.414 106.903 246.861 106.39 247.327C105.889 247.795 105.511 248.274 105.257 248.763C105.003 249.253 104.881 249.743 104.891 250.236C104.905 250.735 105.056 251.237 105.345 251.741C105.622 252.226 105.97 252.597 106.39 252.855C106.813 253.12 107.3 253.266 107.851 253.295C108.401 253.324 109.004 253.237 109.658 253.035C110.322 252.836 111.03 252.522 111.78 252.092ZM117.66 267.279L119.557 270.594C118.503 271.125 117.439 271.362 116.366 271.306C115.304 271.253 114.297 270.911 113.346 270.278C112.402 269.641 111.581 268.712 110.882 267.491C110.324 266.516 109.992 265.547 109.885 264.585C109.778 263.623 109.881 262.695 110.193 261.801C110.516 260.91 111.035 260.07 111.751 259.28C112.478 258.493 113.397 257.781 114.509 257.145L115.419 256.624C116.531 255.987 117.614 255.562 118.668 255.348C119.723 255.134 120.72 255.12 121.66 255.306C122.599 255.493 123.455 255.872 124.226 256.445C124.998 257.018 125.653 257.774 126.191 258.716C126.918 259.984 127.302 261.186 127.345 262.32C127.387 263.455 127.146 264.489 126.622 265.423C126.101 266.364 125.356 267.175 124.388 267.856L122.485 264.531C123.049 264.172 123.474 263.784 123.76 263.367C124.053 262.945 124.189 262.478 124.167 261.966C124.145 261.453 123.947 260.869 123.572 260.215C123.299 259.737 122.971 259.368 122.586 259.109C122.206 258.855 121.76 258.717 121.248 258.693C120.74 258.676 120.163 258.775 119.517 258.991C118.878 259.203 118.163 259.535 117.372 259.988L116.441 260.521C115.656 260.97 115.007 261.409 114.493 261.839C113.978 262.27 113.598 262.704 113.352 263.144C113.109 263.591 113 264.048 113.022 264.514C113.045 264.981 113.205 265.474 113.501 265.992C113.841 266.586 114.216 267.027 114.627 267.318C115.044 267.604 115.504 267.743 116.007 267.736C116.51 267.729 117.061 267.577 117.66 267.279ZM134.314 273.407L119.419 281.932L117.516 278.607L132.412 270.082L134.314 273.407ZM136.908 277.939L134.32 279.42L127.282 267.123L129.87 265.642L136.908 277.939ZM139.883 283.136L124.987 291.661L123.084 288.336L137.98 279.811L139.883 283.136ZM141.411 302.321L140.746 302.702C139.613 303.35 138.507 303.775 137.428 303.976C136.352 304.185 135.333 304.184 134.37 303.974C133.412 303.771 132.538 303.375 131.748 302.786C130.969 302.199 130.308 301.432 129.766 300.484C129.223 299.536 128.894 298.574 128.78 297.599C128.672 296.619 128.769 295.658 129.072 294.715C129.378 293.779 129.891 292.897 130.612 292.068C131.333 291.239 132.259 290.501 133.391 289.853L134.056 289.472C135.189 288.824 136.295 288.399 137.374 288.198C138.461 287.992 139.484 287.991 140.442 288.194C141.404 288.404 142.277 288.805 143.06 289.399C143.85 289.988 144.516 290.756 145.058 291.704C145.601 292.652 145.926 293.616 146.034 294.596C146.149 295.571 146.051 296.524 145.741 297.453C145.434 298.389 144.917 299.273 144.19 300.106C143.469 300.935 142.543 301.673 141.411 302.321ZM138.819 299.336L139.505 298.944C140.262 298.511 140.891 298.06 141.393 297.592C141.901 297.119 142.279 296.641 142.526 296.155C142.774 295.669 142.887 295.179 142.866 294.684C142.852 294.185 142.706 293.693 142.429 293.209C142.14 292.704 141.786 292.323 141.367 292.065C140.955 291.803 140.476 291.656 139.932 291.623C139.392 291.597 138.79 291.684 138.126 291.883C137.472 292.085 136.766 292.403 136.009 292.836L135.324 293.229C134.573 293.658 133.942 294.105 133.43 294.571C132.928 295.039 132.55 295.518 132.296 296.007C132.042 296.497 131.92 296.987 131.93 297.48C131.944 297.979 132.096 298.481 132.385 298.985C132.662 299.469 133.01 299.841 133.429 300.099C133.852 300.363 134.339 300.51 134.89 300.539C135.441 300.568 136.043 300.481 136.697 300.279C137.362 300.08 138.069 299.765 138.819 299.336ZM156.734 312.579L141.839 321.104L139.936 317.779L146.342 306.643L136.715 312.152L134.807 308.817L149.702 300.292L151.611 303.627L145.21 314.774L154.837 309.264L156.734 312.579Z" fill="#FF0000"/>
<path d="M148.289 260.514L150.86 262.001L146.409 269.694L143.838 268.206L148.289 260.514ZM138.467 263.696L153.322 272.292L151.398 275.618L136.543 267.022L138.467 263.696ZM143.639 254.759L158.494 263.354L156.575 266.67L141.72 258.074L143.639 254.759ZM159.336 244.013L159.999 244.396C161.128 245.05 162.051 245.793 162.767 246.625C163.488 247.451 164 248.332 164.301 249.269C164.607 250.2 164.704 251.155 164.592 252.134C164.476 253.102 164.145 254.059 163.598 255.004C163.051 255.95 162.384 256.717 161.598 257.306C160.806 257.892 159.926 258.291 158.959 258.503C157.995 258.708 156.974 258.707 155.896 258.501C154.817 258.294 153.713 257.864 152.584 257.211L151.921 256.827C150.791 256.174 149.869 255.431 149.152 254.598C148.428 253.762 147.913 252.879 147.608 251.948C147.306 251.011 147.214 250.055 147.334 249.079C147.446 248.1 147.776 247.138 148.323 246.193C148.87 245.247 149.54 244.482 150.333 243.897C151.119 243.307 151.991 242.913 152.95 242.715C153.914 242.51 154.938 242.512 156.024 242.723C157.102 242.929 158.206 243.359 159.336 244.013ZM158.056 247.753L157.373 247.358C156.618 246.921 155.912 246.603 155.255 246.404C154.591 246.202 153.988 246.116 153.443 246.146C152.899 246.176 152.419 246.325 152.001 246.591C151.576 246.854 151.225 247.227 150.945 247.71C150.654 248.213 150.502 248.711 150.49 249.203C150.47 249.692 150.583 250.179 150.828 250.666C151.077 251.146 151.455 251.623 151.961 252.097C152.464 252.561 153.093 253.012 153.848 253.448L154.532 253.844C155.28 254.277 155.984 254.598 156.644 254.807C157.301 255.006 157.904 255.092 158.455 255.066C159.006 255.039 159.492 254.898 159.912 254.642C160.337 254.379 160.695 253.996 160.986 253.493C161.265 253.01 161.411 252.523 161.424 252.03C161.44 251.531 161.322 251.037 161.071 250.546C160.819 250.055 160.441 249.578 159.938 249.114C159.432 248.64 158.805 248.186 158.056 247.753ZM171.308 235.279L173.879 236.767L169.539 244.265L166.968 242.778L171.308 235.279ZM155.34 234.537L170.195 243.133L168.27 246.459L153.415 237.863L155.34 234.537ZM173.847 218.935L174.51 219.319C175.639 219.972 176.562 220.715 177.279 221.547C177.999 222.373 178.511 223.254 178.813 224.192C179.119 225.122 179.215 226.077 179.103 227.056C178.987 228.024 178.656 228.981 178.109 229.927C177.562 230.872 176.895 231.639 176.11 232.229C175.317 232.814 174.437 233.213 173.47 233.425C172.507 233.63 171.486 233.63 170.407 233.423C169.328 233.216 168.224 232.786 167.095 232.133L166.432 231.749C165.303 231.096 164.38 230.353 163.663 229.521C162.939 228.684 162.425 227.801 162.119 226.87C161.817 225.933 161.725 224.977 161.845 224.002C161.957 223.023 162.287 222.061 162.834 221.115C163.381 220.17 164.051 219.404 164.844 218.819C165.63 218.229 166.502 217.836 167.462 217.637C168.425 217.432 169.449 217.434 170.535 217.645C171.614 217.852 172.718 218.282 173.847 218.935ZM172.568 222.675L171.884 222.28C171.129 221.843 170.423 221.525 169.766 221.327C169.103 221.124 168.499 221.038 167.955 221.068C167.411 221.098 166.93 221.247 166.512 221.514C166.088 221.777 165.736 222.149 165.456 222.632C165.165 223.136 165.013 223.633 165.001 224.126C164.982 224.614 165.094 225.101 165.339 225.588C165.588 226.068 165.966 226.545 166.472 227.02C166.975 227.483 167.605 227.934 168.36 228.371L169.043 228.766C169.791 229.199 170.495 229.52 171.155 229.729C171.812 229.928 172.416 230.014 172.967 229.988C173.517 229.962 174.003 229.82 174.424 229.564C174.848 229.302 175.206 228.919 175.497 228.415C175.777 227.932 175.923 227.445 175.935 226.953C175.951 226.454 175.834 225.959 175.582 225.468C175.33 224.977 174.953 224.5 174.449 224.036C173.943 223.562 173.316 223.108 172.568 222.675ZM182.744 209.961L184.657 206.655C185.645 207.3 186.385 208.1 186.876 209.056C187.364 210.001 187.574 211.044 187.504 212.184C187.428 213.32 187.037 214.497 186.333 215.714C185.77 216.687 185.1 217.461 184.322 218.037C183.544 218.613 182.69 218.99 181.76 219.169C180.827 219.338 179.839 219.311 178.796 219.089C177.751 218.856 176.674 218.419 175.565 217.777L174.657 217.252C173.548 216.611 172.637 215.888 171.922 215.084C171.207 214.279 170.694 213.424 170.383 212.518C170.072 211.612 169.97 210.681 170.078 209.727C170.185 208.772 170.511 207.825 171.054 206.887C171.786 205.622 172.632 204.686 173.591 204.079C174.551 203.472 175.566 203.161 176.637 203.145C177.712 203.123 178.788 203.359 179.863 203.854L177.944 207.17C177.351 206.863 176.801 206.69 176.297 206.652C175.785 206.61 175.313 206.728 174.881 207.004C174.448 207.281 174.043 207.745 173.666 208.398C173.39 208.874 173.236 209.344 173.205 209.807C173.177 210.263 173.281 210.718 173.517 211.172C173.758 211.62 174.134 212.069 174.645 212.519C175.149 212.965 175.796 213.417 176.585 213.873L177.513 214.411C178.296 214.863 179.002 215.204 179.632 215.432C180.263 215.661 180.83 215.771 181.334 215.763C181.842 215.749 182.292 215.614 182.684 215.36C183.076 215.106 183.422 214.72 183.721 214.203C184.063 213.611 184.257 213.065 184.302 212.564C184.339 212.06 184.229 211.592 183.97 211.16C183.711 210.729 183.302 210.329 182.744 209.961ZM179.675 192.482L194.53 201.078L192.611 204.394L177.756 195.798L179.675 192.482ZM182.29 187.963L184.871 189.456L177.775 201.72L175.194 200.226L182.29 187.963ZM185.289 182.78L200.144 191.376L198.225 194.691L183.371 186.096L185.289 182.78ZM201.11 171.82L201.773 172.203C202.902 172.857 203.825 173.6 204.542 174.432C205.263 175.258 205.774 176.139 206.076 177.076C206.382 178.007 206.478 178.962 206.366 179.941C206.25 180.909 205.919 181.866 205.372 182.811C204.825 183.757 204.159 184.524 203.373 185.113C202.58 185.699 201.7 186.098 200.733 186.31C199.77 186.515 198.749 186.514 197.67 186.308C196.591 186.101 195.487 185.671 194.358 185.018L193.695 184.634C192.566 183.981 191.643 183.238 190.926 182.405C190.202 181.569 189.688 180.686 189.382 179.755C189.08 178.818 188.989 177.862 189.108 176.886C189.22 175.907 189.55 174.945 190.097 174C190.644 173.054 191.314 172.289 192.107 171.704C192.893 171.114 193.765 170.72 194.725 170.522C195.688 170.317 196.712 170.319 197.798 170.53C198.877 170.736 199.981 171.166 201.11 171.82ZM199.831 175.56L199.147 175.165C198.392 174.728 197.686 174.41 197.029 174.211C196.366 174.009 195.762 173.923 195.218 173.953C194.674 173.983 194.193 174.132 193.775 174.398C193.351 174.661 192.999 175.034 192.719 175.517C192.428 176.02 192.276 176.518 192.264 177.01C192.245 177.499 192.358 177.986 192.602 178.473C192.851 178.953 193.229 179.43 193.735 179.904C194.238 180.368 194.868 180.819 195.623 181.255L196.306 181.651C197.054 182.084 197.758 182.405 198.418 182.614C199.075 182.813 199.679 182.899 200.23 182.873C200.781 182.846 201.266 182.705 201.687 182.449C202.111 182.186 202.469 181.803 202.76 181.3C203.04 180.817 203.186 180.33 203.198 179.837C203.214 179.338 203.097 178.844 202.845 178.353C202.593 177.862 202.216 177.385 201.712 176.921C201.206 176.447 200.579 175.993 199.831 175.56ZM202.28 153.417L217.135 162.013L215.216 165.329L202.369 165.385L211.969 170.94L210.044 174.266L195.19 165.67L197.114 162.344L209.968 162.278L200.367 156.723L202.28 153.417Z" fill="#FF0000"/>
<path d="M216.551 143.494L219.122 144.982L214.67 152.674L212.099 151.187L216.551 143.494ZM206.729 146.676L221.584 155.272L219.659 158.598L204.804 150.002L206.729 146.676ZM211.9 137.739L226.755 146.335L224.837 149.65L209.982 141.055L211.9 137.739ZM227.597 126.993L228.26 127.377C229.389 128.03 230.312 128.773 231.029 129.605C231.75 130.431 232.261 131.312 232.563 132.25C232.869 133.18 232.966 134.135 232.853 135.114C232.738 136.082 232.406 137.039 231.859 137.985C231.312 138.93 230.646 139.697 229.86 140.287C229.067 140.872 228.187 141.271 227.22 141.483C226.257 141.688 225.236 141.688 224.157 141.481C223.078 141.274 221.974 140.844 220.845 140.191L220.182 139.807C219.053 139.154 218.13 138.411 217.413 137.579C216.69 136.742 216.175 135.859 215.869 134.928C215.567 133.991 215.476 133.035 215.595 132.06C215.708 131.081 216.037 130.119 216.585 129.173C217.132 128.228 217.802 127.462 218.594 126.877C219.38 126.287 220.253 125.894 221.212 125.695C222.175 125.49 223.199 125.492 224.285 125.703C225.364 125.91 226.468 126.34 227.597 126.993ZM226.318 130.733L225.634 130.338C224.879 129.901 224.173 129.583 223.517 129.385C222.853 129.182 222.249 129.096 221.705 129.126C221.161 129.156 220.68 129.305 220.262 129.572C219.838 129.835 219.486 130.207 219.207 130.69C218.915 131.194 218.764 131.691 218.751 132.184C218.732 132.672 218.845 133.159 219.09 133.646C219.339 134.126 219.716 134.603 220.222 135.078C220.726 135.541 221.355 135.992 222.11 136.429L222.793 136.824C223.542 137.257 224.246 137.578 224.905 137.787C225.562 137.986 226.166 138.072 226.717 138.046C227.268 138.02 227.753 137.878 228.174 137.622C228.598 137.36 228.956 136.977 229.247 136.473C229.527 135.99 229.673 135.503 229.685 135.011C229.702 134.512 229.584 134.017 229.332 133.526C229.08 133.035 228.703 132.558 228.2 132.094C227.693 131.62 227.066 131.166 226.318 130.733ZM239.569 118.259L242.14 119.747L237.801 127.246L235.23 125.758L239.569 118.259ZM223.601 117.517L238.456 126.113L236.532 129.439L221.677 120.843L223.601 117.517ZM242.108 101.915L242.771 102.299C243.9 102.952 244.823 103.695 245.54 104.527C246.261 105.353 246.772 106.235 247.074 107.172C247.38 108.103 247.477 109.057 247.364 110.036C247.249 111.005 246.918 111.961 246.371 112.907C245.823 113.852 245.157 114.62 244.371 115.209C243.578 115.794 242.698 116.193 241.731 116.405C240.768 116.611 239.747 116.61 238.668 116.403C237.589 116.197 236.485 115.767 235.356 115.113L234.693 114.73C233.564 114.076 232.641 113.333 231.924 112.501C231.201 111.665 230.686 110.781 230.38 109.851C230.078 108.913 229.987 107.957 230.106 106.982C230.219 106.003 230.549 105.041 231.096 104.095C231.643 103.15 232.313 102.384 233.105 101.799C233.891 101.21 234.764 100.816 235.723 100.617C236.686 100.412 237.711 100.415 238.796 100.625C239.875 100.832 240.979 101.262 242.108 101.915ZM240.829 105.656L240.146 105.26C239.391 104.823 238.685 104.505 238.028 104.307C237.364 104.104 236.76 104.018 236.216 104.049C235.672 104.079 235.191 104.227 234.774 104.494C234.349 104.757 233.997 105.13 233.718 105.613C233.427 106.116 233.275 106.614 233.262 107.106C233.243 107.594 233.356 108.082 233.601 108.568C233.85 109.048 234.227 109.525 234.734 110C235.237 110.464 235.866 110.914 236.621 111.351L237.305 111.746C238.053 112.179 238.757 112.5 239.416 112.71C240.073 112.908 240.677 112.994 241.228 112.968C241.779 112.942 242.265 112.801 242.685 112.545C243.11 112.282 243.467 111.899 243.759 111.395C244.038 110.913 244.184 110.425 244.196 109.933C244.213 109.434 244.095 108.939 243.843 108.448C243.592 107.958 243.214 107.48 242.711 107.017C242.205 106.542 241.577 106.088 240.829 105.656ZM251.005 92.9409L252.918 89.6353C253.907 90.2801 254.647 91.0805 255.138 92.0364C255.626 92.9816 255.835 94.0242 255.766 95.1643C255.689 96.3004 255.299 97.4772 254.594 98.6947C254.032 99.6673 253.361 100.442 252.583 101.017C251.805 101.593 250.951 101.97 250.021 102.15C249.088 102.318 248.101 102.291 247.058 102.069C246.012 101.836 244.935 101.399 243.827 100.758L242.919 100.232C241.81 99.5908 240.898 98.868 240.183 98.0638C239.468 97.2597 238.955 96.4045 238.644 95.4983C238.333 94.5921 238.232 93.6617 238.339 92.707C238.447 91.7524 238.772 90.8057 239.315 89.8671C240.047 88.602 240.893 87.666 241.853 87.0591C242.812 86.4521 243.827 86.1409 244.899 86.1252C245.974 86.1028 247.049 86.3392 248.125 86.8343L246.206 90.1501C245.612 89.8428 245.063 89.6702 244.558 89.6324C244.047 89.5906 243.575 89.7079 243.142 89.9844C242.71 90.2608 242.305 90.7255 241.927 91.3784C241.652 91.8546 241.498 92.324 241.466 92.7868C241.438 93.2429 241.543 93.6981 241.779 94.1527C242.019 94.6004 242.395 95.0493 242.906 95.4995C243.411 95.9457 244.057 96.3971 244.846 96.8537L245.775 97.3909C246.557 97.8435 247.263 98.1841 247.894 98.4127C248.524 98.6413 249.091 98.7516 249.595 98.7436C250.103 98.7288 250.553 98.5943 250.945 98.3401C251.338 98.0858 251.683 97.7003 251.982 97.1833C252.325 96.5916 252.518 96.0453 252.563 95.5446C252.601 95.0399 252.49 94.5719 252.231 94.1406C251.973 93.7094 251.564 93.3095 251.005 92.9409ZM247.936 75.4627L262.791 84.0584L260.873 87.3742L246.018 78.7785L247.936 75.4627ZM250.552 70.943L253.133 72.4366L246.037 84.7L243.455 83.2064L250.552 70.943ZM253.551 65.7601L268.406 74.3558L266.487 77.6717L251.632 69.0759L253.551 65.7601ZM269.371 54.7999L270.035 55.1837C271.164 55.837 272.087 56.5799 272.803 57.4123C273.524 58.2379 274.035 59.1194 274.337 60.0567C274.643 60.9873 274.74 61.9421 274.627 62.921C274.512 63.8893 274.181 64.8461 273.634 65.7916C273.087 66.737 272.42 67.5044 271.634 68.0937C270.841 68.6791 269.962 69.0779 268.994 69.29C268.031 69.4953 267.01 69.4947 265.931 69.288C264.853 69.0814 263.749 68.6514 262.62 67.998L261.956 67.6143C260.827 66.961 259.904 66.2181 259.188 65.3857C258.464 64.5493 257.949 63.6659 257.643 62.7353C257.341 61.798 257.25 60.8418 257.369 59.8667C257.482 58.8877 257.812 57.9255 258.359 56.9801C258.906 56.0347 259.576 55.2692 260.369 54.6838C261.154 54.0945 262.027 53.7006 262.986 53.5021C263.949 53.2967 264.974 53.2994 266.059 53.51C267.138 53.7166 268.242 54.1466 269.371 54.7999ZM268.092 58.5403L267.409 58.1448C266.654 57.7079 265.948 57.3902 265.291 57.1917C264.627 56.9892 264.023 56.9031 263.479 56.9333C262.935 56.9635 262.454 57.112 262.037 57.3787C261.612 57.6415 261.26 58.0144 260.981 58.4973C260.69 59.0007 260.538 59.4984 260.525 59.9906C260.506 60.4788 260.619 60.9663 260.864 61.453C261.113 61.933 261.49 62.4102 261.997 62.8847C262.5 63.3485 263.129 63.7988 263.884 64.2357L264.568 64.6312C265.316 65.0641 266.02 65.3852 266.68 65.5945C267.336 65.793 267.94 65.8791 268.491 65.8529C269.042 65.8266 269.528 65.6855 269.948 65.4294C270.373 65.1666 270.731 64.7836 271.022 64.2802C271.301 63.7973 271.447 63.3098 271.46 62.8176C271.476 62.3186 271.358 61.8238 271.107 61.3331C270.855 60.8425 270.477 60.3652 269.974 59.9015C269.468 59.427 268.84 58.9732 268.092 58.5403ZM270.541 36.3973L285.396 44.993L283.478 48.3088L270.63 48.3648L280.231 53.9202L278.306 57.2462L263.451 48.6505L265.376 45.3245L278.229 45.2582L268.629 39.7029L270.541 36.3973Z" fill="#FF0000"/>
<path d="M52.015 88.6006L52.0008 91.571L43.1132 91.5287L43.1273 88.5583L52.015 88.6006ZM44.3743 81.6567L44.2925 98.819L40.4499 98.8007L40.5317 81.6383L44.3743 81.6567ZM54.7001 81.7059L54.6182 98.8683L50.7873 98.85L50.8692 81.6876L54.7001 81.7059ZM71.8233 89.9917L71.8197 90.7579C71.8134 92.0624 71.6271 93.2324 71.2607 94.2679C70.9021 95.3035 70.3911 96.1852 69.7275 96.9128C69.0718 97.6405 68.2911 98.1987 67.3856 98.5873C66.4879 98.9681 65.4929 99.1559 64.4006 99.1507C63.3083 99.1454 62.3112 98.9482 61.4094 98.5588C60.5076 98.1616 59.7244 97.596 59.0599 96.862C58.4033 96.128 57.8968 95.2415 57.5402 94.2025C57.1837 93.1635 57.0085 91.9918 57.0148 90.6873L57.0184 89.9211C57.0246 88.6167 57.211 87.4466 57.5774 86.4111C57.9438 85.3677 58.4549 84.4821 59.1106 83.7544C59.7742 83.0267 60.5588 82.4725 61.4643 82.0918C62.3699 81.7032 63.3688 81.5115 64.4611 81.5167C65.5534 81.5219 66.5505 81.7231 67.4523 82.1203C68.3541 82.5097 69.1294 83.0713 69.7782 83.8053C70.4348 84.5392 70.9413 85.4296 71.2978 86.4765C71.6544 87.5155 71.8295 88.6872 71.8233 89.9917ZM67.9416 90.7394L67.9454 89.9496C67.9496 89.0774 67.8746 88.3069 67.7207 87.6382C67.5667 86.9616 67.3415 86.3948 67.0451 85.9376C66.7486 85.4804 66.3809 85.1368 65.942 84.9068C65.503 84.6689 65.0046 84.5487 64.4467 84.546C63.8652 84.5433 63.3577 84.6587 62.9244 84.8924C62.4911 85.1182 62.1241 85.4583 61.8233 85.9127C61.5304 86.3671 61.3037 86.9318 61.1433 87.6068C60.9908 88.2741 60.9125 89.0438 60.9083 89.9161L60.9046 90.7058C60.9005 91.5703 60.9714 92.3407 61.1175 93.0172C61.2715 93.6859 61.4967 94.2528 61.7931 94.7179C62.0895 95.1829 62.4532 95.5344 62.8843 95.7722C63.3233 96.01 63.8335 96.1303 64.415 96.1331C64.9729 96.1358 65.4686 96.0202 65.9019 95.7866C66.3431 95.5529 66.7141 95.205 67.0149 94.7428C67.3157 94.2806 67.5424 93.7158 67.6949 93.0486C67.8553 92.3735 67.9375 91.6038 67.9416 90.7394ZM85.3502 96.0443L85.336 99.0147L76.6724 98.9734L76.6865 96.003L85.3502 96.0443ZM78.0626 81.8173L77.9807 98.9797L74.1381 98.9613L74.2199 81.799L78.0626 81.8173ZM100.797 90.1298L100.793 90.896C100.787 92.2005 100.6 93.3705 100.234 94.4061C99.8754 95.4417 99.3643 96.3233 98.7008 97.051C98.0451 97.7787 97.2644 98.3368 96.3588 98.7254C95.4612 99.1062 94.4662 99.294 93.3739 99.2888C92.2816 99.2836 91.2845 99.0863 90.3827 98.6969C89.4808 98.2997 88.6977 97.7341 88.0332 97.0001C87.3766 96.2661 86.87 95.3797 86.5135 94.3407C86.157 93.3016 85.9818 92.1299 85.988 90.8254L85.9917 90.0593C85.9979 88.7548 86.1842 87.5848 86.5507 86.5492C86.9171 85.5058 87.4282 84.6202 88.0839 83.8925C88.7475 83.1649 89.5321 82.6107 90.4376 82.2299C91.3432 81.8413 92.3421 81.6496 93.4344 81.6548C94.5267 81.66 95.5237 81.8612 96.4256 82.2585C97.3274 82.6478 98.1027 83.2095 98.7515 83.9434C99.4081 84.6774 99.9146 85.5678 100.271 86.6146C100.628 87.6536 100.803 88.8254 100.797 90.1298ZM96.9149 90.8775L96.9187 90.0878C96.9228 89.2155 96.8479 88.445 96.6939 87.7763C96.54 87.0998 96.3148 86.5329 96.0184 86.0757C95.7219 85.6185 95.3542 85.2749 94.9152 85.0449C94.4763 84.8071 93.9779 84.6868 93.4199 84.6842C92.8384 84.6814 92.331 84.7968 91.8977 85.0305C91.4644 85.2564 91.0974 85.5965 90.7966 86.0508C90.5037 86.5052 90.277 87.0699 90.1166 87.745C89.9641 88.4122 89.8858 89.182 89.8816 90.0542L89.8779 90.844C89.8737 91.7084 89.9447 92.4789 90.0908 93.1554C90.2448 93.8241 90.47 94.3909 90.7664 94.856C91.0628 95.3211 91.4265 95.6725 91.8576 95.9103C92.2965 96.1482 92.8068 96.2685 93.3883 96.2712C93.9462 96.2739 94.4418 96.1584 94.8752 95.9247C95.3164 95.691 95.6874 95.3431 95.9882 94.8809C96.289 94.4187 96.5157 93.854 96.6681 93.1867C96.8285 92.5117 96.9108 91.7419 96.9149 90.8775ZM113.005 93.3943L116.824 93.4125C116.755 94.5909 116.428 95.6306 115.842 96.5315C115.265 97.4246 114.464 98.1241 113.44 98.6301C112.416 99.1281 111.2 99.3738 109.794 99.3671C108.67 99.3617 107.665 99.1644 106.779 98.7751C105.893 98.3858 105.141 97.8322 104.524 97.1141C103.914 96.3882 103.447 95.5176 103.121 94.5023C102.804 93.4792 102.649 92.3272 102.655 91.0464L102.66 89.9973C102.666 88.7164 102.84 87.566 103.183 86.546C103.526 85.526 104.013 84.6561 104.645 83.9361C105.277 83.2162 106.034 82.6658 106.916 82.2849C107.798 81.904 108.782 81.7162 109.866 81.7214C111.328 81.7283 112.56 81.9975 113.563 82.5288C114.567 83.0601 115.341 83.7867 115.887 84.7088C116.441 85.6308 116.77 86.6815 116.874 87.8608L113.043 87.8425C113.015 87.1744 112.892 86.6119 112.674 86.1551C112.456 85.6904 112.12 85.3391 111.665 85.1012C111.211 84.8633 110.606 84.7425 109.852 84.7389C109.302 84.7363 108.818 84.8362 108.4 85.0385C107.991 85.2409 107.647 85.5575 107.37 85.9884C107.101 86.4193 106.898 86.9684 106.761 87.6357C106.624 88.2952 106.554 89.0807 106.55 89.9922L106.544 91.0649C106.54 91.9686 106.595 92.7508 106.71 93.4114C106.825 94.0721 107.011 94.6191 107.268 95.0526C107.533 95.486 107.874 95.8099 108.289 96.024C108.704 96.2382 109.211 96.3467 109.808 96.3495C110.492 96.3528 111.062 96.2494 111.519 96.0394C111.976 95.8216 112.327 95.4932 112.573 95.0543C112.818 94.6154 112.962 94.062 113.005 93.3943ZM126.65 82.0489L126.568 99.2113L122.737 99.193L122.819 82.0307L126.65 82.0489ZM131.872 82.0738L131.858 85.056L117.689 84.9885L117.703 82.0063L131.872 82.0738ZM137.86 82.1024L137.778 99.2647L133.947 99.2465L134.029 82.0841L137.86 82.1024ZM155.231 90.3894L155.227 91.1556C155.221 92.46 155.034 93.63 154.668 94.6656C154.309 95.7012 153.798 96.5828 153.135 97.3105C152.479 98.0382 151.698 98.5964 150.793 98.985C149.895 99.3657 148.9 99.5535 147.808 99.5483C146.716 99.5431 145.718 99.3458 144.817 98.9565C143.915 98.5592 143.132 97.9936 142.467 97.2596C141.811 96.5257 141.304 95.6392 140.947 94.6002C140.591 93.5612 140.416 92.3894 140.422 91.085L140.426 90.3188C140.432 89.0143 140.618 87.8443 140.985 86.8087C141.351 85.7653 141.862 84.8798 142.518 84.1521C143.181 83.4244 143.966 82.8702 144.872 82.4894C145.777 82.1008 146.776 81.9091 147.868 81.9143C148.961 81.9196 149.958 82.1208 150.86 82.518C151.761 82.9073 152.537 83.469 153.185 84.2029C153.842 84.9369 154.349 85.8273 154.705 86.8742C155.062 87.9132 155.237 89.0849 155.231 90.3894ZM151.349 91.1371L151.353 90.3473C151.357 89.475 151.282 88.7046 151.128 88.0359C150.974 87.3593 150.749 86.7924 150.452 86.3352C150.156 85.878 149.788 85.5344 149.349 85.3044C148.91 85.0666 148.412 84.9464 147.854 84.9437C147.272 84.9409 146.765 85.0564 146.332 85.2901C145.898 85.5159 145.531 85.856 145.231 86.3103C144.938 86.7647 144.711 87.3294 144.551 88.0045C144.398 88.6717 144.32 89.4415 144.316 90.3138L144.312 91.1035C144.308 91.9679 144.379 92.7384 144.525 93.4149C144.679 94.0836 144.904 94.6505 145.2 95.1155C145.497 95.5806 145.86 95.932 146.292 96.1698C146.73 96.4077 147.241 96.528 147.822 96.5308C148.38 96.5334 148.876 96.4179 149.309 96.1842C149.75 95.9506 150.121 95.6026 150.422 95.1404C150.723 94.6782 150.95 94.1135 151.102 93.4463C151.262 92.7712 151.345 92.0015 151.349 91.1371ZM171.784 82.2641L171.702 99.4265L167.871 99.4082L161.441 88.2854L161.388 99.3773L157.545 99.359L157.627 82.1966L161.47 82.2149L167.912 93.3378L167.965 82.2459L171.784 82.2641Z" fill="#FF0000"/>
<path d="M138.902 31.4294L136.338 32.929L131.851 25.257L134.415 23.7574L138.902 31.4294ZM140.99 21.3182L126.176 29.9827L124.236 26.6657L139.05 18.0011L140.99 21.3182ZM146.203 30.2315L131.389 38.8961L129.454 35.5892L144.269 26.9246L146.203 30.2315ZM147.786 49.1882L147.125 49.575C145.999 50.2335 144.897 50.6686 143.819 50.8803C142.745 51.0987 141.726 51.1075 140.762 50.9067C139.802 50.7126 138.924 50.3247 138.128 49.743C137.344 49.1641 136.676 48.4032 136.124 47.4603C135.573 46.5174 135.235 45.5588 135.111 44.5843C134.994 43.6058 135.083 42.6438 135.376 41.6983C135.674 40.7595 136.179 39.8723 136.892 39.0366C137.605 38.2009 138.524 37.4537 139.65 36.7952L140.312 36.4083C141.438 35.7498 142.54 35.3147 143.618 35.103C144.702 34.8874 145.725 34.8766 146.685 35.0707C147.649 35.2715 148.525 35.6648 149.314 36.2505C150.109 36.8322 150.783 37.5945 151.334 38.5374C151.886 39.4803 152.22 40.4409 152.337 41.4194C152.461 42.3939 152.372 43.3471 152.07 44.2791C151.773 45.2178 151.264 46.107 150.545 46.9467C149.832 47.7824 148.912 48.5296 147.786 49.1882ZM145.167 46.2274L145.849 45.8287C146.602 45.3883 147.227 44.9317 147.724 44.4588C148.228 43.9819 148.601 43.4996 148.844 43.0117C149.087 42.5238 149.195 42.0324 149.17 41.5375C149.151 41.0386 149.001 40.5484 148.719 40.0668C148.426 39.5648 148.068 39.1868 147.646 38.9327C147.231 38.6747 146.752 38.5318 146.208 38.5042C145.667 38.4833 145.066 38.5756 144.403 38.7811C143.751 38.9895 143.049 39.3138 142.296 39.7542L141.614 40.1529C140.868 40.5893 140.241 41.0425 139.733 41.5126C139.236 41.9855 138.862 42.4679 138.613 42.9597C138.363 43.4515 138.246 43.9435 138.261 44.4356C138.279 44.9345 138.436 45.4349 138.729 45.9369C139.011 46.4185 139.363 46.7863 139.784 47.0404C140.21 47.3013 140.698 47.4435 141.249 47.4672C141.8 47.4909 142.402 47.3986 143.054 47.1903C143.716 46.9847 144.421 46.6638 145.167 46.2274ZM149.461 63.9125L146.897 65.4121L142.523 57.9335L145.087 56.4339L149.461 63.9125ZM157.998 50.3984L143.183 59.0629L141.243 55.7459L156.058 47.0813L157.998 50.3984ZM162.414 74.1983L161.752 74.5851C160.626 75.2437 159.524 75.6788 158.446 75.8905C157.372 76.1089 156.353 76.1177 155.389 75.9169C154.429 75.7228 153.551 75.3349 152.756 74.7532C151.971 74.1743 151.303 73.4134 150.752 72.4705C150.2 71.5276 149.863 70.5689 149.739 69.5945C149.622 68.616 149.71 67.654 150.004 66.7085C150.301 65.7697 150.806 64.8825 151.519 64.0468C152.232 63.211 153.152 62.4639 154.278 61.8053L154.939 61.4185C156.065 60.7599 157.167 60.3248 158.245 60.1132C159.33 59.8976 160.352 59.8868 161.312 60.0808C162.276 60.2817 163.153 60.675 163.941 61.2606C164.737 61.8424 165.41 62.6047 165.962 63.5475C166.513 64.4904 166.847 65.4511 166.964 66.4295C167.088 67.404 166.999 68.3573 166.698 69.2892C166.4 70.228 165.892 71.1172 165.172 71.9569C164.459 72.7926 163.54 73.5398 162.414 74.1983ZM159.794 71.2376L160.476 70.8388C161.229 70.3985 161.854 69.9418 162.351 69.469C162.855 68.9921 163.229 68.5097 163.471 68.0219C163.714 67.534 163.823 67.0426 163.797 66.5477C163.779 66.0488 163.628 65.5586 163.347 65.0769C163.053 64.575 162.695 64.197 162.274 63.9429C161.859 63.6849 161.379 63.542 160.835 63.5143C160.295 63.4935 159.693 63.5858 159.031 63.7913C158.379 63.9996 157.676 64.324 156.923 64.7644L156.242 65.1631C155.495 65.5995 154.868 66.0527 154.36 66.5228C153.863 66.9957 153.49 67.478 153.24 67.9699C152.991 68.4617 152.873 68.9537 152.888 69.4458C152.907 69.9447 153.063 70.4451 153.357 70.9471C153.638 71.4287 153.99 71.7965 154.412 72.0506C154.837 72.3114 155.326 72.4537 155.877 72.4774C156.428 72.5011 157.029 72.4088 157.681 72.2004C158.344 71.9949 159.048 71.674 159.794 71.2376ZM165.817 86.3685L167.745 89.6652C166.696 90.206 165.634 90.4535 164.561 90.4078C163.498 90.3649 162.488 90.0315 161.531 89.4075C160.582 88.7796 159.752 87.8585 159.041 86.6443C158.474 85.6743 158.132 84.7088 158.017 83.7479C157.901 82.787 157.995 81.8581 158.298 80.9612C158.613 80.0671 159.125 79.2217 159.833 78.425C160.552 77.6311 161.465 76.9109 162.57 76.2642L163.476 75.7346C164.582 75.0879 165.661 74.6525 166.713 74.4285C167.765 74.2044 168.762 74.1812 169.704 74.3589C170.645 74.5366 171.504 74.9081 172.281 75.4734C173.058 76.0387 173.72 76.7895 174.267 77.7256C175.005 78.9873 175.401 80.1851 175.454 81.3192C175.508 82.4533 175.276 83.4898 174.76 84.4288C174.248 85.3746 173.511 86.1926 172.55 86.8826L170.615 83.5757C171.176 83.2114 171.598 82.8192 171.88 82.3992C172.169 81.9752 172.3 81.5069 172.274 80.9945C172.247 80.482 172.044 79.9002 171.663 79.249C171.385 78.7742 171.053 78.4086 170.666 78.1522C170.283 77.9026 169.836 77.7682 169.324 77.749C168.816 77.7366 168.24 77.8413 167.596 78.0632C166.959 78.2811 166.247 78.6202 165.46 79.0804L164.534 79.622C163.754 80.0782 163.109 80.5238 162.599 80.9588C162.088 81.3938 161.712 81.8323 161.47 82.2744C161.232 82.7232 161.126 83.181 161.153 83.6476C161.18 84.1142 161.345 84.6053 161.646 85.1209C161.991 85.711 162.371 86.1492 162.784 86.4356C163.204 86.7179 163.665 86.8531 164.168 86.8413C164.671 86.8294 165.221 86.6718 165.817 86.3685ZM182.528 92.3397L167.713 101.004L165.779 97.6974L180.594 89.0329L182.528 92.3397ZM185.164 96.8473L182.59 98.3529L175.437 86.1225L178.011 84.6169L185.164 96.8473ZM188.187 102.016L173.372 110.681L171.438 107.374L186.253 98.7093L188.187 102.016ZM189.895 121.187L189.234 121.573C188.108 122.232 187.006 122.667 185.928 122.879C184.854 123.097 183.835 123.106 182.871 122.905C181.911 122.711 181.033 122.323 180.237 121.741C179.453 121.162 178.785 120.402 178.233 119.459C177.682 118.516 177.344 117.557 177.22 116.583C177.103 115.604 177.191 114.642 177.485 113.697C177.783 112.758 178.288 111.871 179.001 111.035C179.714 110.199 180.633 109.452 181.759 108.794L182.421 108.407C183.547 107.748 184.649 107.313 185.727 107.101C186.811 106.886 187.834 106.875 188.794 107.069C189.758 107.27 190.634 107.663 191.423 108.249C192.218 108.831 192.892 109.593 193.443 110.536C193.995 111.479 194.329 112.439 194.446 113.418C194.57 114.392 194.481 115.345 194.179 116.277C193.882 117.216 193.373 118.105 192.653 118.945C191.941 119.781 191.021 120.528 189.895 121.187ZM187.276 118.226L187.957 117.827C188.71 117.387 189.336 116.93 189.833 116.457C190.337 115.98 190.71 115.498 190.953 115.01C191.196 114.522 191.304 114.031 191.279 113.536C191.26 113.037 191.11 112.547 190.828 112.065C190.535 111.563 190.177 111.185 189.755 110.931C189.34 110.673 188.861 110.53 188.317 110.503C187.776 110.482 187.175 110.574 186.512 110.78C185.86 110.988 185.158 111.312 184.405 111.753L183.723 112.151C182.977 112.588 182.35 113.041 181.842 113.511C181.345 113.984 180.971 114.466 180.722 114.958C180.472 115.45 180.355 115.942 180.37 116.434C180.388 116.933 180.544 117.433 180.838 117.935C181.12 118.417 181.471 118.785 181.893 119.039C182.319 119.3 182.807 119.442 183.358 119.466C183.909 119.489 184.51 119.397 185.162 119.189C185.825 118.983 186.53 118.662 187.276 118.226ZM205.314 131.3L190.499 139.964L188.565 136.658L194.867 125.461L185.292 131.061L183.352 127.744L198.167 119.08L200.107 122.397L193.811 133.603L203.386 128.003L205.314 131.3Z" fill="#FF0000"/>
<path d="M21.4899 216.718L24.0687 218.192L19.6574 225.908L17.0787 224.434L21.4899 216.718ZM11.6847 219.952L26.5841 228.47L24.6769 231.806L9.77743 223.288L11.6847 219.952ZM16.8096 210.987L31.7091 219.506L29.8077 222.831L14.9083 214.313L16.8096 210.987ZM32.4501 200.16L33.1153 200.54C34.2478 201.188 35.1745 201.926 35.8956 202.754C36.6206 203.576 37.1366 204.455 37.4434 205.391C37.7541 206.32 37.8558 207.274 37.7483 208.253C37.638 209.222 37.3118 210.181 36.7696 211.129C36.2275 212.077 35.565 212.848 34.7822 213.442C33.9925 214.031 33.1147 214.434 32.1488 214.652C31.1867 214.862 30.1657 214.867 29.0857 214.666C28.0058 214.465 26.8996 214.04 25.7671 213.393L25.102 213.013C23.9695 212.365 23.0427 211.627 22.3216 210.798C21.5937 209.966 21.0744 209.085 20.7637 208.156C20.4568 207.22 20.3605 206.265 20.4748 205.289C20.5822 204.309 20.907 203.346 21.4491 202.397C21.9913 201.449 22.6572 200.68 23.4468 200.091C24.2296 199.497 25.1001 199.099 26.0583 198.895C27.0204 198.685 28.0448 198.682 29.1315 198.887C30.2115 199.088 31.3177 199.512 32.4501 200.16ZM31.1905 203.907L30.5049 203.515C29.7476 203.082 29.0401 202.768 28.3822 202.573C27.7175 202.374 27.1132 202.291 26.5693 202.324C26.0254 202.357 25.5453 202.508 25.1291 202.777C24.706 203.042 24.356 203.416 24.0791 203.901C23.7904 204.406 23.6412 204.904 23.6313 205.396C23.6147 205.885 23.7301 206.372 23.9775 206.857C24.2289 207.336 24.6089 207.811 25.1176 208.283C25.6234 208.744 26.2549 209.191 27.0122 209.624L27.6978 210.016C28.4482 210.445 29.1538 210.762 29.8146 210.968C30.4725 211.163 31.0768 211.246 31.6275 211.217C32.1783 211.188 32.6632 211.044 33.0824 210.786C33.5055 210.521 33.8613 210.136 34.1499 209.631C34.4268 209.147 34.5702 208.659 34.5801 208.166C34.5938 207.667 34.4736 207.173 34.2193 206.684C33.965 206.195 33.585 205.719 33.0792 205.258C32.5705 204.786 31.9409 204.336 31.1905 203.907ZM44.3766 191.364L46.9553 192.838L42.6552 200.359L40.0765 198.885L44.3766 191.364ZM28.4052 190.705L43.3046 199.223L41.3974 202.559L26.498 194.041L28.4052 190.705ZM46.8305 175.007L47.4957 175.387C48.6281 176.034 49.5549 176.773 50.276 177.601C51.001 178.423 51.5169 179.302 51.8238 180.238C52.1345 181.167 52.2361 182.121 52.1287 183.1C52.0184 184.069 51.6921 185.028 51.15 185.976C50.6078 186.924 49.9454 187.695 49.1625 188.289C48.3729 188.878 47.4951 189.281 46.5291 189.499C45.567 189.709 44.546 189.714 43.4661 189.513C42.3862 189.312 41.28 188.887 40.1475 188.24L39.4824 187.86C38.3499 187.212 37.4231 186.474 36.702 185.645C35.9741 184.813 35.4548 183.932 35.144 183.003C34.8372 182.067 34.7409 181.112 34.8552 180.136C34.9626 179.156 35.2874 178.193 35.8295 177.244C36.3716 176.296 37.0375 175.527 37.8272 174.938C38.61 174.344 39.4805 173.946 40.4387 173.742C41.4007 173.532 42.4252 173.529 43.5119 173.734C44.5918 173.935 45.698 174.359 46.8305 175.007ZM45.5709 178.754L44.8852 178.362C44.128 177.929 43.4204 177.615 42.7625 177.42C42.0978 177.221 41.4935 177.138 40.9496 177.171C40.4058 177.204 39.9257 177.355 39.5094 177.624C39.0863 177.889 38.7363 178.263 38.4594 178.748C38.1708 179.253 38.0216 179.751 38.0117 180.243C37.995 180.732 38.1104 181.219 38.3579 181.704C38.6093 182.183 38.9893 182.658 39.498 183.13C40.0038 183.591 40.6353 184.038 41.3925 184.471L42.0782 184.863C42.8286 185.292 43.5342 185.609 44.195 185.815C44.8529 186.01 45.4572 186.093 46.0079 186.064C46.5586 186.035 47.0436 185.891 47.4627 185.633C47.8858 185.368 48.2417 184.983 48.5303 184.478C48.8072 183.994 48.9506 183.506 48.9605 183.013C48.9742 182.514 48.8539 182.02 48.5996 181.531C48.3454 181.041 47.9653 180.566 47.4595 180.105C46.9509 179.633 46.3213 179.183 45.5709 178.754ZM55.6808 165.986L57.5763 162.671C58.5685 163.31 59.3125 164.107 59.8084 165.06C60.3014 166.003 60.5161 167.044 60.4525 168.185C60.3821 169.321 59.9978 170.5 59.2996 171.721C58.7419 172.697 58.0755 173.475 57.3005 174.054C56.5255 174.634 55.6735 175.016 54.7446 175.2C53.8127 175.373 52.8249 175.352 51.781 175.135C50.7342 174.908 49.6548 174.476 48.5428 173.84L47.6321 173.32C46.5201 172.684 45.6045 171.966 44.8853 171.166C44.1662 170.365 43.6488 169.513 43.3332 168.608C43.0176 167.703 42.911 166.774 43.0136 165.818C43.1161 164.863 43.4365 163.915 43.9748 162.973C44.7002 161.705 45.5411 160.764 46.4974 160.152C47.4537 159.54 48.4675 159.224 49.5387 159.203C50.6138 159.174 51.6903 159.405 52.7682 159.895L50.8669 163.221C50.2714 162.916 49.7212 162.747 49.2163 162.711C48.7046 162.672 48.2333 162.792 47.8024 163.071C47.3715 163.349 46.9689 163.816 46.5945 164.471C46.3214 164.949 46.1703 165.419 46.1409 165.882C46.1155 166.338 46.2221 166.793 46.4608 167.246C46.7034 167.693 47.0815 168.14 47.5951 168.587C48.1018 169.031 48.7509 169.479 49.5422 169.931L50.4735 170.463C51.258 170.912 51.9661 171.249 52.5976 171.474C53.2292 171.7 53.7969 171.807 54.3008 171.796C54.8087 171.779 55.258 171.642 55.6489 171.386C56.0399 171.129 56.3835 170.742 56.6799 170.224C57.0193 169.63 57.2099 169.083 57.252 168.582C57.2872 168.077 57.1742 167.61 56.9131 167.18C56.6519 166.75 56.2412 166.352 55.6808 165.986ZM52.5207 148.524L67.4201 157.043L65.5187 160.368L50.6193 151.85L52.5207 148.524ZM55.1124 143.991L57.7014 145.471L50.6692 157.771L48.0802 156.291L55.1124 143.991ZM58.0844 138.793L72.9839 147.311L71.0825 150.637L56.1831 142.118L58.0844 138.793ZM73.8478 127.75L74.513 128.13C75.6454 128.778 76.5722 129.516 77.2933 130.345C78.0183 131.166 78.5342 132.045 78.8411 132.981C79.1518 133.91 79.2534 134.864 79.146 135.844C79.0357 136.813 78.7094 137.771 78.1673 138.719C77.6251 139.668 76.9627 140.439 76.1798 141.032C75.3902 141.621 74.5124 142.025 73.5464 142.242C72.5843 142.452 71.5633 142.457 70.4834 142.256C69.4035 142.055 68.2973 141.631 67.1648 140.983L66.4997 140.603C65.3672 139.956 64.4404 139.217 63.7193 138.389C62.9914 137.556 62.472 136.675 62.1613 135.747C61.8545 134.811 61.7582 133.855 61.8724 132.879C61.9799 131.9 62.3047 130.936 62.8468 129.988C63.3889 129.039 64.0548 128.27 64.8445 127.681C65.6273 127.088 66.4978 126.689 67.456 126.486C68.418 126.275 69.4425 126.273 70.5292 126.477C71.6091 126.678 72.7153 127.103 73.8478 127.75ZM72.5882 131.497L71.9025 131.105C71.1453 130.672 70.4377 130.358 69.7798 130.163C69.1151 129.964 68.5108 129.881 67.9669 129.914C67.423 129.947 66.943 130.098 66.5267 130.367C66.1036 130.632 65.7536 131.007 65.4767 131.491C65.1881 131.996 65.0389 132.495 65.029 132.987C65.0123 133.475 65.1277 133.962 65.3752 134.447C65.6266 134.926 66.0066 135.401 66.5153 135.873C67.0211 136.334 67.6526 136.781 68.4098 137.214L69.0955 137.606C69.8459 138.035 70.5515 138.353 71.2123 138.559C71.8702 138.754 72.4745 138.837 73.0252 138.808C73.5759 138.778 74.0609 138.635 74.48 138.377C74.9031 138.111 75.259 137.727 75.5476 137.222C75.8245 136.737 75.9679 136.249 75.9777 135.757C75.9915 135.258 75.8712 134.764 75.6169 134.274C75.3626 133.785 74.9826 133.31 74.4768 132.848C73.9681 132.377 73.3386 131.926 72.5882 131.497ZM74.922 109.342L89.8214 117.86L87.92 121.186L75.0729 121.309L84.7023 126.814L82.7951 130.15L67.8956 121.632L69.8029 118.296L82.6558 118.162L73.0265 112.657L74.922 109.342Z" fill="#FF0000"/>
<path d="M208.31 149.958L205.746 151.457L201.259 143.785L203.823 142.286L208.31 149.958ZM210.398 139.846L195.584 148.511L193.644 145.194L208.458 136.529L210.398 139.846ZM215.611 148.76L200.797 157.424L198.863 154.117L213.677 145.453L215.611 148.76ZM217.194 167.716L216.533 168.103C215.407 168.762 214.305 169.197 213.227 169.409C212.153 169.627 211.134 169.636 210.17 169.435C209.21 169.241 208.332 168.853 207.537 168.271C206.752 167.692 206.084 166.931 205.532 165.989C204.981 165.046 204.643 164.087 204.519 163.113C204.402 162.134 204.491 161.172 204.784 160.227C205.082 159.288 205.587 158.401 206.3 157.565C207.013 156.729 207.932 155.982 209.058 155.323L209.72 154.937C210.846 154.278 211.948 153.843 213.026 153.631C214.11 153.416 215.133 153.405 216.093 153.599C217.057 153.8 217.933 154.193 218.722 154.779C219.517 155.36 220.191 156.123 220.742 157.066C221.294 158.009 221.628 158.969 221.745 159.948C221.869 160.922 221.78 161.875 221.479 162.807C221.181 163.746 220.672 164.635 219.953 165.475C219.24 166.311 218.32 167.058 217.194 167.716ZM214.575 164.756L215.257 164.357C216.01 163.917 216.635 163.46 217.132 162.987C217.636 162.51 218.009 162.028 218.252 161.54C218.495 161.052 218.603 160.561 218.578 160.066C218.559 159.567 218.409 159.077 218.127 158.595C217.834 158.093 217.476 157.715 217.054 157.461C216.639 157.203 216.16 157.06 215.616 157.032C215.076 157.012 214.474 157.104 213.811 157.309C213.159 157.518 212.457 157.842 211.704 158.282L211.022 158.681C210.276 159.118 209.649 159.571 209.141 160.041C208.644 160.514 208.27 160.996 208.021 161.488C207.772 161.98 207.654 162.472 207.669 162.964C207.687 163.463 207.844 163.963 208.137 164.465C208.419 164.947 208.771 165.315 209.192 165.569C209.618 165.83 210.106 165.972 210.657 165.995C211.208 166.019 211.81 165.927 212.462 165.719C213.124 165.513 213.829 165.192 214.575 164.756ZM218.869 182.441L216.305 183.94L211.931 176.462L214.495 174.962L218.869 182.441ZM227.406 168.927L212.591 177.591L210.651 174.274L225.466 165.61L227.406 168.927ZM231.822 192.727L231.16 193.113C230.034 193.772 228.932 194.207 227.854 194.419C226.78 194.637 225.761 194.646 224.797 194.445C223.837 194.251 222.959 193.863 222.164 193.281C221.379 192.703 220.711 191.942 220.16 190.999C219.608 190.056 219.271 189.097 219.147 188.123C219.03 187.144 219.118 186.182 219.412 185.237C219.709 184.298 220.215 183.411 220.927 182.575C221.64 181.739 222.56 180.992 223.686 180.334L224.347 179.947C225.473 179.288 226.575 178.853 227.653 178.641C228.738 178.426 229.76 178.415 230.72 178.609C231.684 178.81 232.561 179.203 233.349 179.789C234.145 180.371 234.818 181.133 235.37 182.076C235.921 183.019 236.255 183.979 236.373 184.958C236.496 185.932 236.408 186.886 236.106 187.817C235.808 188.756 235.3 189.645 234.58 190.485C233.867 191.321 232.948 192.068 231.822 192.727ZM229.202 189.766L229.884 189.367C230.637 188.927 231.262 188.47 231.759 187.997C232.263 187.52 232.637 187.038 232.879 186.55C233.122 186.062 233.231 185.571 233.205 185.076C233.187 184.577 233.036 184.087 232.755 183.605C232.461 183.103 232.104 182.725 231.682 182.471C231.267 182.213 230.787 182.07 230.243 182.043C229.703 182.022 229.101 182.114 228.439 182.32C227.787 182.528 227.084 182.852 226.331 183.293L225.65 183.691C224.903 184.128 224.276 184.581 223.768 185.051C223.271 185.524 222.898 186.006 222.648 186.498C222.399 186.99 222.282 187.482 222.296 187.974C222.315 188.473 222.471 188.973 222.765 189.475C223.046 189.957 223.398 190.325 223.82 190.579C224.245 190.84 224.734 190.982 225.285 191.006C225.836 191.029 226.437 190.937 227.089 190.729C227.752 190.523 228.456 190.202 229.202 189.766ZM235.225 204.897L237.153 208.193C236.104 208.734 235.043 208.982 233.969 208.936C232.906 208.893 231.896 208.56 230.94 207.936C229.99 207.308 229.16 206.387 228.449 205.173C227.882 204.203 227.541 203.237 227.425 202.276C227.309 201.315 227.403 200.386 227.707 199.489C228.021 198.595 228.533 197.75 229.241 196.953C229.96 196.159 230.873 195.439 231.978 194.792L232.884 194.263C233.99 193.616 235.069 193.181 236.121 192.957C237.174 192.733 238.171 192.709 239.112 192.887C240.053 193.065 240.912 193.436 241.689 194.002C242.466 194.567 243.128 195.318 243.676 196.254C244.413 197.516 244.809 198.713 244.862 199.847C244.916 200.982 244.684 202.018 244.168 202.957C243.657 203.903 242.92 204.721 241.958 205.411L240.024 202.104C240.584 201.74 241.006 201.347 241.288 200.927C241.577 200.503 241.709 200.035 241.682 199.523C241.655 199.01 241.452 198.428 241.071 197.777C240.793 197.302 240.461 196.937 240.074 196.68C239.692 196.431 239.244 196.296 238.732 196.277C238.224 196.265 237.648 196.37 237.004 196.591C236.367 196.809 235.655 197.148 234.868 197.609L233.942 198.15C233.162 198.606 232.517 199.052 232.007 199.487C231.496 199.922 231.12 200.361 230.878 200.803C230.64 201.251 230.534 201.709 230.561 202.176C230.588 202.642 230.753 203.134 231.054 203.649C231.399 204.239 231.779 204.677 232.192 204.964C232.612 205.246 233.073 205.381 233.576 205.37C234.079 205.358 234.629 205.2 235.225 204.897ZM251.936 210.868L237.121 219.533L235.187 216.226L250.002 207.561L251.936 210.868ZM254.572 215.376L251.998 216.881L244.845 204.651L247.419 203.145L254.572 215.376ZM257.595 220.544L242.781 229.209L240.846 225.902L255.661 217.238L257.595 220.544ZM259.303 239.715L258.642 240.102C257.516 240.76 256.414 241.195 255.336 241.407C254.262 241.625 253.243 241.634 252.279 241.433C251.319 241.239 250.441 240.851 249.645 240.27C248.861 239.691 248.193 238.93 247.641 237.987C247.09 237.044 246.752 236.085 246.628 235.111C246.511 234.132 246.6 233.17 246.893 232.225C247.191 231.286 247.696 230.399 248.409 229.563C249.122 228.728 250.041 227.98 251.167 227.322L251.829 226.935C252.955 226.276 254.057 225.841 255.135 225.63C256.219 225.414 257.242 225.403 258.202 225.597C259.166 225.798 260.042 226.191 260.831 226.777C261.626 227.359 262.3 228.121 262.851 229.064C263.403 230.007 263.737 230.968 263.854 231.946C263.978 232.92 263.889 233.874 263.587 234.806C263.29 235.744 262.781 236.634 262.061 237.473C261.349 238.309 260.429 239.056 259.303 239.715ZM256.684 236.754L257.366 236.355C258.119 235.915 258.744 235.458 259.241 234.985C259.745 234.509 260.118 234.026 260.361 233.538C260.604 233.05 260.712 232.559 260.687 232.064C260.668 231.565 260.518 231.075 260.236 230.593C259.943 230.091 259.585 229.713 259.163 229.459C258.748 229.201 258.269 229.058 257.725 229.031C257.184 229.01 256.583 229.102 255.92 229.308C255.268 229.516 254.566 229.84 253.813 230.281L253.131 230.68C252.385 231.116 251.758 231.569 251.25 232.039C250.753 232.512 250.379 232.994 250.13 233.486C249.88 233.978 249.763 234.47 249.778 234.962C249.796 235.461 249.952 235.962 250.246 236.464C250.528 236.945 250.879 237.313 251.301 237.567C251.727 237.828 252.215 237.97 252.766 237.994C253.317 238.018 253.919 237.925 254.571 237.717C255.233 237.511 255.938 237.19 256.684 236.754ZM274.722 249.828L259.907 258.493L257.973 255.186L264.275 243.99L254.7 249.59L252.76 246.273L267.575 237.608L269.515 240.925L263.219 252.131L272.794 246.531L274.722 249.828Z" fill="#FF0000"/>
<path d="M89.5985 97.4385L92.1773 98.9128L87.7661 106.629L85.1873 105.154L89.5985 97.4385ZM79.7933 100.672L94.6927 109.19L92.7855 112.526L77.8861 104.008L79.7933 100.672ZM84.9183 91.7076L99.8177 100.226L97.9163 103.552L83.0169 95.0334L84.9183 91.7076ZM100.559 80.8801L101.224 81.2604C102.356 81.9078 103.283 82.6459 104.004 83.4745C104.729 84.2964 105.245 85.1752 105.552 86.111C105.863 87.0399 105.964 87.9942 105.857 88.9737C105.747 89.9426 105.42 90.9011 104.878 91.8494C104.336 92.7977 103.674 93.5685 102.891 94.1619C102.101 94.7515 101.223 95.1548 100.257 95.3719C99.2953 95.5823 98.2743 95.5869 97.1944 95.3859C96.1144 95.1849 95.0082 94.7606 93.8758 94.1132L93.2106 93.7329C92.0782 93.0855 91.1514 92.3474 90.4303 91.5188C89.7023 90.6862 89.183 89.8055 88.8723 88.8765C88.5655 87.9407 88.4692 86.985 88.5834 86.0093C88.6908 85.0298 89.0156 84.0659 89.5578 83.1176C90.0999 82.1693 90.7658 81.4004 91.5554 80.8109C92.3383 80.2175 93.2087 79.819 94.1669 79.6155C95.129 79.4052 96.1534 79.4025 97.2402 79.6074C98.3201 79.8084 99.4263 80.2327 100.559 80.8801ZM99.2991 84.6271L98.6135 84.2351C97.8563 83.8022 97.1487 83.4882 96.4908 83.2931C95.8261 83.0941 95.2218 83.0111 94.6779 83.0441C94.134 83.0772 93.6539 83.2281 93.2377 83.4971C92.8146 83.7621 92.4646 84.1368 92.1877 84.6212C91.8991 85.126 91.7498 85.6245 91.74 86.1167C91.7233 86.6051 91.8387 87.092 92.0862 87.5774C92.3375 88.0561 92.7176 88.5313 93.2263 89.0032C93.732 89.4643 94.3635 89.9114 95.1208 90.3443L95.8064 90.7363C96.5568 91.1653 97.2625 91.4827 97.9233 91.6885C98.5812 91.8836 99.1855 91.9666 99.7362 91.9375C100.287 91.9083 100.772 91.7647 101.191 91.5065C101.614 91.2414 101.97 90.8565 102.259 90.3517C102.535 89.8673 102.679 89.379 102.689 88.8868C102.702 88.3877 102.582 87.8935 102.328 87.4042C102.074 86.9148 101.694 86.4396 101.188 85.9784C100.679 85.5066 100.05 85.0561 99.2991 84.6271ZM112.485 72.084L115.064 73.5583L110.764 81.0797L108.185 79.6054L112.485 72.084ZM96.5138 71.4256L111.413 79.9438L109.506 83.2798L94.6066 74.7616L96.5138 71.4256ZM114.939 55.7271L115.604 56.1073C116.737 56.7548 117.664 57.4928 118.385 58.3215C119.11 59.1433 119.626 60.0221 119.932 60.9579C120.243 61.8869 120.345 62.8411 120.237 63.8207C120.127 64.7895 119.801 65.7481 119.259 66.6963C118.716 67.6446 118.054 68.4155 117.271 69.0089C116.482 69.5984 115.604 70.0018 114.638 70.2189C113.676 70.4292 112.655 70.4339 111.575 70.2329C110.495 70.0318 109.389 69.6076 108.256 68.9602L107.591 68.5799C106.459 67.9324 105.532 67.1944 104.811 66.3657C104.083 65.5332 103.563 64.6524 103.253 63.7235C102.946 62.7877 102.85 61.832 102.964 60.8563C103.071 59.8767 103.396 58.9128 103.938 57.9646C104.48 57.0163 105.146 56.2474 105.936 55.6579C106.719 55.0644 107.589 54.666 108.547 54.4625C109.509 54.2521 110.534 54.2494 111.621 54.4544C112.7 54.6554 113.807 55.0796 114.939 55.7271ZM113.679 59.474L112.994 59.0821C112.237 58.6491 111.529 58.3351 110.871 58.14C110.206 57.9411 109.602 57.8581 109.058 57.8911C108.514 57.9241 108.034 58.0751 107.618 58.344C107.195 58.6091 106.845 58.9838 106.568 59.4681C106.279 59.973 106.13 60.4715 106.12 60.9637C106.104 61.452 106.219 61.9389 106.467 62.4244C106.718 62.903 107.098 63.3783 107.607 63.8501C108.112 64.3113 108.744 64.7583 109.501 65.1912L110.187 65.5832C110.937 66.0123 111.643 66.3297 112.304 66.5355C112.962 66.7306 113.566 66.8135 114.117 66.7844C114.667 66.7553 115.152 66.6116 115.571 66.3534C115.994 66.0884 116.35 65.7035 116.639 65.1986C116.916 64.7143 117.059 64.226 117.069 63.7337C117.083 63.2347 116.963 62.7405 116.708 62.2511C116.454 61.7618 116.074 61.2865 115.568 60.8254C115.059 60.3535 114.43 59.9031 113.679 59.474ZM123.789 46.7066L125.685 43.3911C126.677 44.0307 127.421 44.8272 127.917 45.7806C128.41 46.7232 128.625 47.7647 128.561 48.9051C128.491 50.0416 128.106 51.2204 127.408 52.4416C126.851 53.4171 126.184 54.1948 125.409 54.7746C124.634 55.3544 123.782 55.7363 122.853 55.9203C121.921 56.0936 120.933 56.0719 119.89 55.8553C118.843 55.628 117.763 55.1965 116.651 54.5607L115.741 54.04C114.629 53.4043 113.713 52.6862 112.994 51.8858C112.275 51.0854 111.757 50.2329 111.442 49.3284C111.126 48.4238 111.02 47.4939 111.122 46.5387C111.225 45.5835 111.545 44.6352 112.083 43.6937C112.809 42.4248 113.65 41.4844 114.606 40.8725C115.562 40.2606 116.576 39.944 117.647 39.9228C118.722 39.8948 119.799 40.1255 120.877 40.6151L118.975 43.9408C118.38 43.6366 117.83 43.4669 117.325 43.4317C116.813 43.3926 116.342 43.5124 115.911 43.791C115.48 44.0697 115.078 44.5365 114.703 45.1914C114.43 45.669 114.279 46.1392 114.25 46.6022C114.224 47.0584 114.331 47.5131 114.569 47.9664C114.812 48.4129 115.19 48.8598 115.704 49.3073C116.21 49.7509 116.86 50.199 117.651 50.6514L118.582 51.1838C119.367 51.6323 120.075 51.9692 120.706 52.1945C121.338 52.4198 121.906 52.5272 122.409 52.5165C122.917 52.4991 123.367 52.3623 123.758 52.106C124.148 51.8497 124.492 51.4624 124.789 50.9439C125.128 50.3504 125.319 49.8031 125.361 49.3021C125.396 48.7972 125.283 48.3298 125.022 47.8999C124.761 47.47 124.35 47.0723 123.789 46.7066Z" fill="#FF0000"/>
<path d="M26.3394 220.186V223.157H17.4516V220.186H26.3394ZM18.6657 213.279L18.6657 230.441H14.823L14.823 213.279H18.6657ZM28.9916 213.279V230.441H25.1606V213.279H28.9916ZM46.1541 221.483V222.249C46.1541 223.554 45.9734 224.725 45.6119 225.762C45.2583 226.799 44.7514 227.683 44.0913 228.414C43.4391 229.145 42.6611 229.707 41.7574 230.1C40.8615 230.485 39.8675 230.677 38.7752 230.677C37.6828 230.677 36.6848 230.485 35.7811 230.1C34.8774 229.707 34.0916 229.145 33.4236 228.414C32.7635 227.683 32.2528 226.799 31.8913 225.762C31.5298 224.725 31.349 223.554 31.349 222.249V221.483C31.349 220.178 31.5298 219.008 31.8913 217.97C32.2528 216.925 32.7596 216.037 33.4119 215.306C34.072 214.575 34.8539 214.018 35.7576 213.632C36.6613 213.24 37.6593 213.043 38.7516 213.043C39.8439 213.043 40.8419 213.24 41.7456 213.632C42.6493 214.018 43.4273 214.575 44.0795 215.306C44.7396 216.037 45.2504 216.925 45.6119 217.97C45.9734 219.008 46.1541 220.178 46.1541 221.483ZM42.276 222.249V221.459C42.276 220.587 42.1975 219.817 42.0403 219.149C41.8831 218.473 41.6552 217.907 41.3566 217.452C41.058 216.996 40.6887 216.654 40.2486 216.426C39.8085 216.19 39.3095 216.073 38.7516 216.073C38.1701 216.073 37.6632 216.19 37.231 216.426C36.7988 216.654 36.4334 216.996 36.1348 217.452C35.844 217.907 35.62 218.473 35.4629 219.149C35.3136 219.817 35.2389 220.587 35.2389 221.459V222.249C35.2389 223.114 35.3136 223.884 35.4629 224.559C35.62 225.227 35.8479 225.793 36.1465 226.257C36.4452 226.721 36.8106 227.07 37.2428 227.306C37.6828 227.542 38.1936 227.66 38.7752 227.66C39.3331 227.66 39.8282 227.542 40.2604 227.306C40.7004 227.07 41.0698 226.721 41.3684 226.257C41.667 225.793 41.891 225.227 42.0403 224.559C42.1975 223.884 42.276 223.114 42.276 222.249ZM59.7097 227.471V230.441H51.0459V227.471H59.7097ZM52.3543 213.279V230.441H48.5116V213.279H52.3543ZM75.1277 221.483V222.249C75.1277 223.554 74.947 224.725 74.5855 225.762C74.2319 226.799 73.725 227.683 73.0649 228.414C72.4127 229.145 71.6347 229.707 70.731 230.1C69.8352 230.485 68.8411 230.677 67.7488 230.677C66.6565 230.677 65.6585 230.485 64.7548 230.1C63.851 229.707 63.0652 229.145 62.3973 228.414C61.7372 227.683 61.2264 226.799 60.8649 225.762C60.5034 224.725 60.3227 223.554 60.3227 222.249V221.483C60.3227 220.178 60.5034 219.008 60.8649 217.97C61.2264 216.925 61.7332 216.037 62.3855 215.306C63.0456 214.575 63.8275 214.018 64.7312 213.632C65.6349 213.24 66.6329 213.043 67.7252 213.043C68.8175 213.043 69.8155 213.24 70.7192 213.632C71.6229 214.018 72.4009 214.575 73.0531 215.306C73.7132 216.037 74.224 216.925 74.5855 217.97C74.947 219.008 75.1277 220.178 75.1277 221.483ZM71.2496 222.249V221.459C71.2496 220.587 71.1711 219.817 71.0139 219.149C70.8567 218.473 70.6288 217.907 70.3302 217.452C70.0316 216.996 69.6623 216.654 69.2222 216.426C68.7821 216.19 68.2831 216.073 67.7252 216.073C67.1437 216.073 66.6368 216.19 66.2046 216.426C65.7724 216.654 65.407 216.996 65.1084 217.452C64.8176 217.907 64.5937 218.473 64.4365 219.149C64.2872 219.817 64.2125 220.587 64.2125 221.459V222.249C64.2125 223.114 64.2872 223.884 64.4365 224.559C64.5937 225.227 64.8215 225.793 65.1202 226.257C65.4188 226.721 65.7842 227.07 66.2164 227.306C66.6565 227.542 67.1673 227.66 67.7488 227.66C68.3067 227.66 68.8018 227.542 69.234 227.306C69.6741 227.07 70.0434 226.721 70.342 226.257C70.6406 225.793 70.8646 225.227 71.0139 224.559C71.1711 223.884 71.2496 223.114 71.2496 222.249ZM87.3513 224.689H91.1705C91.1076 225.868 90.7854 226.909 90.2039 227.813C89.6302 228.709 88.8326 229.412 87.811 229.923C86.7895 230.426 85.5754 230.677 84.1687 230.677C83.045 230.677 82.0391 230.485 81.1511 230.1C80.2631 229.715 79.5087 229.164 78.8879 228.449C78.275 227.726 77.8035 226.858 77.4734 225.844C77.1512 224.823 76.9901 223.671 76.9901 222.391V221.342C76.9901 220.061 77.1591 218.909 77.497 217.888C77.8349 216.866 78.3182 215.994 78.9469 215.271C79.5755 214.548 80.3299 213.994 81.2101 213.609C82.0902 213.224 83.0725 213.031 84.1569 213.031C85.6186 213.031 86.8523 213.295 87.8582 213.821C88.8641 214.348 89.642 215.071 90.1921 215.99C90.7501 216.909 91.084 217.959 91.1941 219.137H87.3631C87.3317 218.469 87.206 217.907 86.9859 217.452C86.7659 216.988 86.428 216.638 85.9722 216.403C85.5164 216.167 84.9113 216.049 84.1569 216.049C83.6069 216.049 83.1236 216.151 82.7071 216.355C82.2984 216.56 81.9566 216.878 81.6816 217.31C81.4144 217.742 81.214 218.292 81.0804 218.96C80.9468 219.621 80.88 220.406 80.88 221.318V222.391C80.88 223.294 80.939 224.076 81.0568 224.736C81.1747 225.396 81.3633 225.943 81.6226 226.375C81.8898 226.807 82.2316 227.129 82.6481 227.341C83.0646 227.554 83.5715 227.66 84.1687 227.66C84.8524 227.66 85.4221 227.554 85.8779 227.341C86.3337 227.121 86.6834 226.791 86.927 226.351C87.1706 225.911 87.312 225.357 87.3513 224.689ZM100.942 213.279V230.441H97.1114V213.279H100.942ZM106.164 213.279V216.261H91.9956V213.279H106.164ZM112.152 213.279V230.441H108.321V213.279H112.152ZM129.562 221.483V222.249C129.562 223.554 129.382 224.725 129.02 225.762C128.666 226.799 128.16 227.683 127.499 228.414C126.847 229.145 126.069 229.707 125.166 230.1C124.27 230.485 123.276 230.677 122.183 230.677C121.091 230.677 120.093 230.485 119.189 230.1C118.286 229.707 117.5 229.145 116.832 228.414C116.172 227.683 115.661 226.799 115.299 225.762C114.938 224.725 114.757 223.554 114.757 222.249V221.483C114.757 220.178 114.938 219.008 115.299 217.97C115.661 216.925 116.168 216.037 116.82 215.306C117.48 214.575 118.262 214.018 119.166 213.632C120.069 213.24 121.067 213.043 122.16 213.043C123.252 213.043 124.25 213.24 125.154 213.632C126.057 214.018 126.835 214.575 127.488 215.306C128.148 216.037 128.659 216.925 129.02 217.97C129.382 219.008 129.562 220.178 129.562 221.483ZM125.684 222.249V221.459C125.684 220.587 125.606 219.817 125.448 219.149C125.291 218.473 125.063 217.907 124.765 217.452C124.466 216.996 124.097 216.654 123.657 216.426C123.217 216.19 122.718 216.073 122.16 216.073C121.578 216.073 121.071 216.19 120.639 216.426C120.207 216.654 119.842 216.996 119.543 217.452C119.252 217.907 119.028 218.473 118.871 219.149C118.722 219.817 118.647 220.587 118.647 221.459V222.249C118.647 223.114 118.722 223.884 118.871 224.559C119.028 225.227 119.256 225.793 119.555 226.257C119.853 226.721 120.219 227.07 120.651 227.306C121.091 227.542 121.602 227.66 122.183 227.66C122.741 227.66 123.236 227.542 123.669 227.306C124.109 227.07 124.478 226.721 124.777 226.257C125.075 225.793 125.299 225.227 125.448 224.559C125.606 223.884 125.684 223.114 125.684 222.249ZM146.077 213.279V230.441H142.246L135.763 219.349V230.441H131.92V213.279H135.763L142.257 224.371V213.279L146.077 213.279Z" fill="#FF0000"/>
<path d="M164.081 220.186V223.157H155.194V220.186H164.081ZM156.408 213.279V230.441H152.565V213.279H156.408ZM166.734 213.279V230.441H162.903V213.279H166.734ZM183.896 221.483V222.249C183.896 223.554 183.715 224.725 183.354 225.762C183 226.799 182.493 227.683 181.833 228.414C181.181 229.145 180.403 229.707 179.499 230.1C178.604 230.485 177.609 230.677 176.517 230.677C175.425 230.677 174.427 230.485 173.523 230.1C172.619 229.707 171.834 229.145 171.166 228.414C170.506 227.683 169.995 226.799 169.633 225.762C169.272 224.725 169.091 223.554 169.091 222.249V221.483C169.091 220.178 169.272 219.008 169.633 217.97C169.995 216.925 170.502 216.037 171.154 215.306C171.814 214.575 172.596 214.018 173.5 213.632C174.403 213.24 175.401 213.043 176.494 213.043C177.586 213.043 178.584 213.24 179.488 213.632C180.391 214.018 181.169 214.575 181.822 215.306C182.482 216.037 182.992 216.925 183.354 217.97C183.715 219.008 183.896 220.178 183.896 221.483ZM180.018 222.249V221.459C180.018 220.587 179.939 219.817 179.782 219.149C179.625 218.473 179.397 217.907 179.099 217.452C178.8 216.996 178.431 216.654 177.991 216.426C177.551 216.19 177.052 216.073 176.494 216.073C175.912 216.073 175.405 216.19 174.973 216.426C174.541 216.654 174.175 216.996 173.877 217.452C173.586 217.907 173.362 218.473 173.205 219.149C173.056 219.817 172.981 220.587 172.981 221.459V222.249C172.981 223.114 173.056 223.884 173.205 224.559C173.362 225.227 173.59 225.793 173.889 226.257C174.187 226.721 174.553 227.07 174.985 227.306C175.425 227.542 175.936 227.66 176.517 227.66C177.075 227.66 177.57 227.542 178.002 227.306C178.442 227.07 178.812 226.721 179.11 226.257C179.409 225.793 179.633 225.227 179.782 224.559C179.939 223.884 180.018 223.114 180.018 222.249ZM197.452 227.471V230.441H188.788V227.471H197.452ZM190.096 213.279V230.441H186.254V213.279H190.096ZM212.87 221.483V222.249C212.87 223.554 212.689 224.725 212.328 225.762C211.974 226.799 211.467 227.683 210.807 228.414C210.155 229.145 209.377 229.707 208.473 230.1C207.577 230.485 206.583 230.677 205.491 230.677C204.398 230.677 203.4 230.485 202.497 230.1C201.593 229.707 200.807 229.145 200.139 228.414C199.479 227.683 198.968 226.799 198.607 225.762C198.245 224.725 198.065 223.554 198.065 222.249V221.483C198.065 220.178 198.245 219.008 198.607 217.97C198.968 216.925 199.475 216.037 200.127 215.306C200.788 214.575 201.569 214.018 202.473 213.632C203.377 213.24 204.375 213.043 205.467 213.043C206.56 213.043 207.558 213.24 208.461 213.632C209.365 214.018 210.143 214.575 210.795 215.306C211.455 216.037 211.966 216.925 212.328 217.97C212.689 219.008 212.87 220.178 212.87 221.483ZM208.992 222.249V221.459C208.992 220.587 208.913 219.817 208.756 219.149C208.599 218.473 208.371 217.907 208.072 217.452C207.774 216.996 207.404 216.654 206.964 216.426C206.524 216.19 206.025 216.073 205.467 216.073C204.886 216.073 204.379 216.19 203.947 216.426C203.514 216.654 203.149 216.996 202.85 217.452C202.56 217.907 202.336 218.473 202.178 219.149C202.029 219.817 201.955 220.587 201.955 221.459V222.249C201.955 223.114 202.029 223.884 202.178 224.559C202.336 225.227 202.564 225.793 202.862 226.257C203.161 226.721 203.526 227.07 203.958 227.306C204.398 227.542 204.909 227.66 205.491 227.66C206.049 227.66 206.544 227.542 206.976 227.306C207.416 227.07 207.785 226.721 208.084 226.257C208.383 225.793 208.607 225.227 208.756 224.559C208.913 223.884 208.992 223.114 208.992 222.249ZM225.093 224.689H228.912C228.85 225.868 228.527 226.909 227.946 227.813C227.372 228.709 226.575 229.412 225.553 229.923C224.531 230.426 223.317 230.677 221.911 230.677C220.787 230.677 219.781 230.485 218.893 230.1C218.005 229.715 217.251 229.164 216.63 228.449C216.017 227.726 215.545 226.858 215.215 225.844C214.893 224.823 214.732 223.671 214.732 222.391V221.342C214.732 220.061 214.901 218.909 215.239 217.888C215.577 216.866 216.06 215.994 216.689 215.271C217.318 214.548 218.072 213.994 218.952 213.609C219.832 213.224 220.814 213.031 221.899 213.031C223.361 213.031 224.594 213.295 225.6 213.821C226.606 214.348 227.384 215.071 227.934 215.99C228.492 216.909 228.826 217.959 228.936 219.137H225.105C225.074 218.469 224.948 217.907 224.728 217.452C224.508 216.988 224.17 216.638 223.714 216.403C223.258 216.167 222.653 216.049 221.899 216.049C221.349 216.049 220.866 216.151 220.449 216.355C220.04 216.56 219.699 216.878 219.424 217.31C219.156 217.742 218.956 218.292 218.822 218.96C218.689 219.621 218.622 220.406 218.622 221.318V222.391C218.622 223.294 218.681 224.076 218.799 224.736C218.917 225.396 219.105 225.943 219.365 226.375C219.632 226.807 219.974 227.129 220.39 227.341C220.807 227.554 221.313 227.66 221.911 227.66C222.594 227.66 223.164 227.554 223.62 227.341C224.076 227.121 224.425 226.791 224.669 226.351C224.913 225.911 225.054 225.357 225.093 224.689Z" fill="#FF0000"/>
<path d="M189.757 89.8196L189.743 92.79L180.855 92.7476L180.869 89.7772L189.757 89.8196ZM182.116 82.8756L182.035 100.038L178.192 100.02L178.274 82.8573L182.116 82.8756ZM192.442 82.9249L192.36 100.087L188.529 100.069L188.611 82.9066L192.442 82.9249ZM209.565 91.2107L209.562 91.9768C209.555 93.2813 209.369 94.4513 209.003 95.4869C208.644 96.5225 208.133 97.4041 207.469 98.1318C206.814 98.8595 206.033 99.4176 205.128 99.8063C204.23 100.187 203.235 100.375 202.143 100.37C201.05 100.364 200.053 100.167 199.151 99.7778C198.25 99.3805 197.466 98.8149 196.802 98.0809C196.145 97.347 195.639 96.4605 195.282 95.4215C194.926 94.3825 194.751 93.2107 194.757 91.9063L194.76 91.1401C194.767 89.8356 194.953 88.6656 195.319 87.63C195.686 86.5866 196.197 85.7011 196.853 84.9733C197.516 84.2457 198.301 83.6915 199.206 83.3107C200.112 82.9221 201.111 82.7304 202.203 82.7356C203.295 82.7408 204.292 82.9421 205.194 83.3393C206.096 83.7286 206.871 84.2903 207.52 85.0242C208.177 85.7582 208.683 86.6486 209.04 87.6955C209.396 88.7345 209.572 89.9062 209.565 91.2107ZM205.684 91.9584L205.687 91.1686C205.692 90.2963 205.617 89.5259 205.463 88.8572C205.309 88.1806 205.084 87.6137 204.787 87.1565C204.491 86.6993 204.123 86.3557 203.684 86.1257C203.245 85.8879 202.747 85.7676 202.189 85.765C201.607 85.7622 201.1 85.8777 200.666 86.1114C200.233 86.3372 199.866 86.6773 199.565 87.1316C199.272 87.586 199.046 88.1507 198.885 88.8258C198.733 89.493 198.654 90.2628 198.65 91.1351L198.647 91.9248C198.642 92.7892 198.713 93.5597 198.86 94.2362C199.013 94.9049 199.239 95.4718 199.535 95.9368C199.831 96.4019 200.195 96.7533 200.626 96.9911C201.065 97.229 201.575 97.3493 202.157 97.3521C202.715 97.3547 203.211 97.2392 203.644 97.0055C204.085 96.7719 204.456 96.4239 204.757 95.9617C205.058 95.4995 205.284 94.9348 205.437 94.2675C205.597 93.5925 205.679 92.8228 205.684 91.9584ZM223.092 97.2633L223.078 100.234L214.414 100.192L214.429 97.222L223.092 97.2633ZM215.805 83.0362L215.723 100.199L211.88 100.18L211.962 83.0179L215.805 83.0362ZM238.539 91.3488L238.535 92.115C238.529 93.4194 238.342 94.5895 237.976 95.625C237.617 96.6606 237.106 97.5423 236.443 98.2699C235.787 98.9976 235.006 99.5558 234.101 99.9444C233.203 100.325 232.208 100.513 231.116 100.508C230.024 100.503 229.027 100.305 228.125 99.9159C227.223 99.5187 226.44 98.9531 225.775 98.2191C225.119 97.4851 224.612 96.5986 224.256 95.5596C223.899 94.5206 223.724 93.3489 223.73 92.0444L223.734 91.2782C223.74 89.9738 223.926 88.8037 224.293 87.7682C224.659 86.7248 225.17 85.8392 225.826 85.1115C226.489 84.3838 227.274 83.8296 228.18 83.4489C229.085 83.0603 230.084 82.8686 231.176 82.8738C232.269 82.879 233.266 83.0802 234.168 83.4774C235.069 83.8668 235.845 84.4284 236.493 85.1623C237.15 85.8963 237.657 86.7867 238.013 87.8336C238.37 88.8726 238.545 90.0443 238.539 91.3488ZM234.657 92.0965L234.661 91.3067C234.665 90.4345 234.59 89.664 234.436 88.9953C234.282 88.3187 234.057 87.7519 233.76 87.2947C233.464 86.8375 233.096 86.4939 232.657 86.2639C232.218 86.026 231.72 85.9058 231.162 85.9031C230.58 85.9003 230.073 86.0158 229.64 86.2495C229.206 86.4753 228.839 86.8154 228.539 87.2698C228.246 87.7242 228.019 88.2889 227.859 88.9639C227.706 89.6312 227.628 90.4009 227.624 91.2732L227.62 92.0629C227.616 92.9273 227.687 93.6978 227.833 94.3743C227.987 95.043 228.212 95.6099 228.508 96.075C228.805 96.54 229.169 96.8915 229.6 97.1293C230.039 97.3671 230.549 97.4874 231.13 97.4902C231.688 97.4928 232.184 97.3773 232.617 97.1437C233.058 96.91 233.429 96.5621 233.73 96.0999C234.031 95.6376 234.258 95.0729 234.41 94.4057C234.571 93.7306 234.653 92.9609 234.657 92.0965ZM250.747 94.6132L254.566 94.6314C254.497 95.8099 254.17 96.8496 253.584 97.7505C253.006 98.6436 252.206 99.3431 251.182 99.849C250.158 100.347 248.942 100.593 247.536 100.586C246.412 100.581 245.407 100.383 244.521 99.9941C243.635 99.6048 242.883 99.0511 242.266 98.333C241.656 97.6072 241.189 96.7366 240.863 95.7213C240.546 94.6982 240.391 93.5462 240.397 92.2653L240.402 91.2162C240.408 89.9353 240.582 88.7849 240.925 87.765C241.268 86.745 241.755 85.875 242.387 85.1551C243.019 84.4351 243.776 83.8847 244.658 83.5039C245.54 83.123 246.524 82.9352 247.608 82.9403C249.07 82.9473 250.302 83.2164 251.305 83.7477C252.309 84.279 253.083 85.0057 253.629 85.9277C254.183 86.8498 254.512 87.9005 254.616 89.0797L250.785 89.0615C250.757 88.3934 250.634 87.8309 250.416 87.3741C250.198 86.9094 249.862 86.5581 249.407 86.3202C248.953 86.0822 248.348 85.9615 247.594 85.9579C247.044 85.9553 246.56 86.0551 246.142 86.2574C245.733 86.4598 245.389 86.7764 245.112 87.2073C244.843 87.6383 244.64 88.1874 244.503 88.8547C244.366 89.5141 244.296 90.2997 244.292 91.2112L244.286 92.2839C244.282 93.1875 244.337 93.9697 244.452 94.6304C244.567 95.291 244.753 95.8381 245.01 96.2715C245.275 96.705 245.616 97.0288 246.031 97.243C246.446 97.4571 246.953 97.5656 247.55 97.5685C248.234 97.5717 248.804 97.4684 249.261 97.2584C249.718 97.0405 250.069 96.7121 250.315 96.2732C250.56 95.8343 250.704 95.281 250.747 94.6132Z" fill="#FF0000"/>
</g>
</g>
<defs>
<clipPath id="clip0_4_51">
<rect width="269" height="310.614" fill="white"/>
</clipPath>
</defs>
</svg>
